<svg width="400" height="277" viewBox="0 0 400 277" fill="none" xmlns="http://www.w3.org/2000/svg">
<g clip-path="url(#clip0)">
<rect width="400" height="277" fill="white"/>
<g clip-path="url(#clip1)">
<path d="M402.5 -0.429932H-0.409912V278.58H402.5V-0.429932Z" fill="#DD45D3"/>
<path d="M402.5 -3.5H342.3V79.94L402.5 114.7V-3.5Z" fill="black"/>
<path d="M402.5 115.21C402.41 115.21 402.33 115.19 402.25 115.14L342.05 80.38C341.89 80.29 341.8 80.12 341.8 79.94V-3.5C341.8 -3.78 342.03 -4 342.3 -4H402.5C402.78 -4 403 -3.77 403 -3.5V114.7C403 114.88 402.9 115.05 402.75 115.14C402.68 115.18 402.59 115.21 402.5 115.21ZM342.81 79.65L402 113.83V-2.99H342.81V79.65Z" fill="black"/>
<path d="M396.48 104.28L390.46 107.76L384.44 111.23L378.42 114.71L384.44 118.19L390.46 114.71L396.48 111.23L402.5 107.76L396.48 104.28ZM390.46 93.8501L384.44 97.3301L378.42 100.81L372.4 104.29L378.42 107.77L384.44 104.29L390.46 100.81L396.48 97.3301L390.46 93.8501Z" fill="white"/>
<path d="M384.44 118.68C384.35 118.68 384.27 118.66 384.19 118.61L378.17 115.13C378.01 115.04 377.92 114.87 377.92 114.69C377.92 114.51 378.02 114.34 378.17 114.25L396.23 103.83C396.39 103.74 396.58 103.74 396.73 103.83L402.75 107.31C402.91 107.4 403 107.57 403 107.75C403 107.93 402.9 108.1 402.75 108.19L384.69 118.61C384.61 118.66 384.53 118.68 384.44 118.68ZM379.42 114.7L384.43 117.6L401.49 107.76L396.48 104.87L379.42 114.7ZM378.42 108.26C378.33 108.26 378.25 108.24 378.17 108.19L372.15 104.71C371.99 104.62 371.9 104.45 371.9 104.27C371.9 104.09 372 103.92 372.15 103.83L390.21 93.4C390.37 93.31 390.56 93.31 390.71 93.4L396.73 96.88C396.89 96.97 396.98 97.14 396.98 97.32C396.98 97.5 396.88 97.67 396.73 97.76L378.67 108.19C378.59 108.24 378.5 108.26 378.42 108.26ZM373.4 104.28L378.41 107.17L395.47 97.32L390.46 94.42L373.4 104.28Z" fill="black"/>
<path d="M390.46 100.81L384.44 104.29L378.42 107.77V114.71L384.44 111.23L390.46 107.76L396.48 104.28V97.3301L390.46 100.81Z" fill="#943CFF"/>
<path d="M378.42 115.21C378.33 115.21 378.25 115.19 378.17 115.14C378.01 115.05 377.92 114.88 377.92 114.7V107.76C377.92 107.58 378.02 107.41 378.17 107.32L396.23 96.89C396.39 96.8 396.58 96.8 396.73 96.89C396.89 96.98 396.98 97.15 396.98 97.33V104.28C396.98 104.46 396.88 104.63 396.73 104.72L378.67 115.14C378.59 115.18 378.5 115.21 378.42 115.21ZM378.92 108.05V113.83L395.97 103.99V98.2L390.7 101.24L378.92 108.05Z" fill="black"/>
<path d="M384.44 83.4202L374.04 89.4302L372.4 90.3702L366.38 93.8502L372.4 97.3302L378.42 93.8502L384.44 90.3702L390.46 86.8902L384.44 83.4202Z" fill="white"/>
<path d="M372.4 97.8301C372.31 97.8301 372.23 97.8101 372.15 97.7601L366.13 94.2801C365.97 94.1901 365.88 94.0201 365.88 93.8401C365.88 93.6601 365.98 93.4901 366.13 93.4001L384.19 82.9701C384.35 82.8801 384.54 82.8801 384.69 82.9701L390.71 86.4501C390.87 86.5401 390.96 86.7101 390.96 86.8901C390.96 87.0701 390.86 87.2401 390.71 87.3301L372.65 97.7601C372.57 97.8101 372.48 97.8301 372.4 97.8301ZM367.38 93.8501L372.39 96.7501L389.45 86.9001L384.44 84.0001L367.38 93.8501Z" fill="black"/>
<path d="M384.44 90.3701L378.42 93.8501L372.4 97.3301V104.28L378.42 100.8L384.44 97.3201L390.46 93.8401V86.9001L384.44 90.3701Z" fill="#943CFF"/>
<path d="M372.4 104.79C372.31 104.79 372.23 104.77 372.15 104.72C371.99 104.63 371.9 104.46 371.9 104.28V97.3301C371.9 97.1501 372 96.9801 372.15 96.8901L384.19 89.9401L390.21 86.4601C390.37 86.3701 390.56 86.3701 390.71 86.4601C390.87 86.5501 390.96 86.7201 390.96 86.9001V93.8501C390.96 94.0301 390.86 94.2001 390.71 94.2901L372.65 104.72C372.57 104.76 372.48 104.79 372.4 104.79ZM372.9 97.6201V103.41L389.96 93.5601V87.7701L372.9 97.6201Z" fill="black"/>
<path d="M384.44 118.18L380.06 127.67L402.5 114.71V107.77L384.44 118.18Z" fill="#943CFF"/>
<path d="M380.06 128.17C379.94 128.17 379.82 128.12 379.72 128.04C379.56 127.89 379.51 127.66 379.6 127.46L383.98 117.97C384.02 117.87 384.1 117.8 384.19 117.74L402.25 107.32C402.41 107.23 402.6 107.23 402.75 107.32C402.91 107.41 403 107.58 403 107.76V114.7C403 114.88 402.9 115.05 402.75 115.14L380.31 128.1C380.24 128.15 380.15 128.17 380.06 128.17ZM384.83 118.54L381.18 126.44L402 114.41V108.63L384.83 118.54Z" fill="black"/>
<path d="M150.64 140.51C147.58 138.75 144.73 138.09 142.29 138.36C130.2 123.18 117.22 113.26 106.1 106.84C90.0499 97.5801 77.8799 95.6001 77.8799 95.6001L35.9899 119.8V123.31L24.5299 129.93C21.5099 131.62 19.6299 135.3 19.6299 140.58C19.6299 143.27 20.1199 146.1 20.9999 148.92L24.6699 151.03C26.9399 156.85 31.1599 162.34 35.9999 165.13C39.6799 167.25 42.9899 167.42 45.3599 165.97L47.9599 164.47L50.9899 166.23L86.4499 186.7L90.1199 188.81C92.3899 194.63 96.6099 200.12 101.45 202.91C105.13 205.03 108.44 205.2 110.81 203.75L113.41 202.25L116.44 204L158.32 179.82L165.64 175.6C166.52 173.79 167.01 171.52 167.01 168.83C167 158.42 159.68 145.72 150.64 140.51Z" fill="white"/>
<path d="M64.19 131.03C48.14 121.77 35.97 119.79 35.97 119.79V157.58L101.42 195.37L112.98 181.13C97.91 154.99 79.32 139.77 64.19 131.03Z" fill="#943CFF"/>
<path d="M101.43 195.88C101.34 195.88 101.26 195.86 101.18 195.81L35.72 158.02C35.56 157.93 35.47 157.76 35.47 157.58V119.79C35.47 119.64 35.53 119.5 35.65 119.41C35.76 119.31 35.91 119.27 36.06 119.3C36.18 119.32 48.5 121.4 64.45 130.6C84.32 142.07 100.8 158.98 113.44 180.89C113.54 181.07 113.53 181.3 113.39 181.46L101.83 195.7C101.72 195.82 101.57 195.88 101.43 195.88ZM36.48 157.29L101.31 194.72L112.38 181.08C99.86 159.48 83.56 142.79 63.94 131.46C50.12 123.48 39.09 120.92 36.48 120.39V157.29Z" fill="black"/>
<path d="M154.9 157.44C154.73 157.44 154.56 157.35 154.46 157.19C141.92 135.44 125.56 118.65 105.84 107.27C90.0601 98.17 77.9101 96.11 77.7901 96.09C77.5201 96.05 77.3301 95.79 77.3701 95.51C77.4101 95.23 77.6701 95.04 77.9501 95.09C78.0701 95.11 90.3901 97.19 106.34 106.39C126.21 117.86 142.69 134.77 155.33 156.68C155.47 156.92 155.39 157.23 155.15 157.37C155.07 157.42 154.98 157.44 154.9 157.44Z" fill="black"/>
<path d="M91.9799 163.46L45.4199 136.58L40.8799 124.87C45.5299 126.13 54.0699 128.97 64.1899 134.81C72.5399 139.63 80.4099 145.6 87.5499 152.52C89.9499 154.84 92.2699 157.29 94.5199 159.84L91.9799 163.46Z" fill="black"/>
<path d="M91.9799 163.96C91.8899 163.96 91.8099 163.94 91.7299 163.89L45.1699 137.01C45.0699 136.95 44.9899 136.86 44.9499 136.76L40.4099 125.05C40.3399 124.87 40.3799 124.67 40.4999 124.53C40.6299 124.39 40.8199 124.33 41.0099 124.38C45.2999 125.54 54.0499 128.38 64.4399 134.37C72.8199 139.21 80.7199 145.19 87.8999 152.15C90.2699 154.44 92.6199 156.92 94.8899 159.5C95.0399 159.67 95.0599 159.93 94.9199 160.12L92.3899 163.74C92.2999 163.89 92.1399 163.96 91.9799 163.96ZM45.8299 136.23L91.8299 162.79L93.8699 159.87C91.6999 157.41 89.4599 155.06 87.1899 152.88C80.0599 145.98 72.2399 140.04 63.9299 135.25C54.3699 129.73 46.2199 126.91 41.7099 125.62L45.8299 136.23Z" fill="black"/>
<path d="M17.1101 134.2C14.1301 135.9 12.3 139.58 12.3 144.8C12.3 147.49 12.79 150.32 13.67 153.14L43.66 170.46L50.9801 166.24C51.8601 164.43 52.35 162.16 52.35 159.48C52.35 149.05 45.0301 136.35 35.9901 131.14C31.4601 128.53 27.3701 128.29 24.4001 130.01L17.1101 134.2Z" fill="white"/>
<path d="M38.02 170.21L40.62 168.71L41.66 166.92L38.28 164.92C38.29 164.93 38.02 170.21 38.02 170.21Z" fill="black"/>
<path d="M43.6601 170.47C44.5401 168.66 45.0301 166.39 45.0301 163.7C45.0301 153.27 37.7101 140.57 28.6701 135.36C19.6401 130.14 12.3101 134.37 12.3101 144.8C12.3101 147.49 12.8001 150.32 13.6801 153.14L43.6601 170.47Z" fill="#943CFF"/>
<path d="M43.66 170.98C43.57 170.98 43.49 170.96 43.41 170.91L13.42 153.59C13.31 153.53 13.2301 153.42 13.1901 153.3C12.2701 150.34 11.8 147.48 11.8 144.81C11.8 139.58 13.59 135.66 16.85 133.78C20.1 131.9 24.39 132.31 28.92 134.93C38.08 140.21 45.5401 153.12 45.5401 163.71C45.5401 166.41 45.06 168.76 44.12 170.7C44.06 170.83 43.9501 170.92 43.82 170.96C43.76 170.97 43.71 170.98 43.66 170.98ZM14.09 152.81L43.43 169.75C44.1501 168.05 44.5201 166.01 44.5201 163.7C44.5201 153.43 37.2901 140.92 28.41 135.8C24.2 133.37 20.2801 132.96 17.34 134.65C14.41 136.34 12.8 139.95 12.8 144.8C12.8 147.32 13.23 150.02 14.09 152.81Z" fill="black"/>
<path d="M37.9199 170.28C43.0299 167.33 43.0299 157.76 37.9199 148.91C32.8099 140.06 24.5199 135.28 19.4099 138.23C14.2999 141.18 14.2999 150.75 19.4099 159.6C24.5199 168.45 32.8099 173.23 37.9199 170.28Z" fill="black"/>
<path d="M35.6101 166.27C39.4501 164.06 39.4501 156.88 35.6101 150.23C31.7801 143.59 25.5601 140 21.7201 142.22C17.8801 144.43 17.8801 151.61 21.7201 158.26C25.5501 164.9 31.7701 168.49 35.6101 166.27Z" fill="black"/>
<path d="M34.2601 148.17C33.8201 147.56 33.3401 146.96 32.8501 146.4L28.6601 152.35L24.4701 141.56C23.9701 141.55 23.5001 141.59 23.0601 141.69L27.2501 152.47L18.8801 147.64C18.8601 147.94 18.8501 148.24 18.8501 148.56C18.8501 148.88 18.8601 149.2 18.8801 149.53L27.2501 154.36L23.0601 160.31C23.5001 160.92 23.9801 161.52 24.4701 162.08L28.6601 156.13L32.8501 166.92C33.3501 166.93 33.8201 166.89 34.2601 166.79L30.0701 156.01L38.4401 160.84C38.4601 160.54 38.4701 160.24 38.4701 159.92C38.4701 159.6 38.4601 159.28 38.4401 158.95L30.0701 154.12L34.2601 148.17Z" fill="#DD45D3"/>
<path d="M43.66 170.96C43.54 170.96 43.41 170.91 43.32 170.83C43.16 170.68 43.11 170.44 43.21 170.24C44.08 168.44 44.52 166.24 44.52 163.71C44.52 153.44 37.29 140.93 28.41 135.81C24.21 133.38 20.29 132.97 17.36 134.65C17.21 134.73 17.03 134.74 16.88 134.66C16.73 134.59 16.63 134.44 16.61 134.27C16.58 134.07 16.68 133.86 16.86 133.76L24.15 129.56C24.21 129.52 24.24 129.5 24.28 129.48L35.73 122.87C35.89 122.78 36.08 122.78 36.23 122.87C36.39 122.96 36.48 123.13 36.48 123.31V130.84C45.53 136.2 52.85 148.98 52.85 159.48C52.85 162.18 52.37 164.53 51.43 166.46C51.39 166.55 51.32 166.63 51.23 166.68L43.92 170.9C43.83 170.94 43.75 170.96 43.66 170.96ZM21.35 132.62C23.68 132.62 26.25 133.4 28.91 134.93C38.07 140.21 45.53 153.12 45.53 163.7C45.53 165.77 45.25 167.64 44.69 169.28L50.59 165.87C51.42 164.09 51.84 161.94 51.84 159.46C51.84 149.19 44.61 136.67 35.73 131.56C35.59 131.46 35.46 131.29 35.46 131.12V124.17L24.76 130.35L24.67 130.41L20.83 132.62C21 132.63 21.17 132.62 21.35 132.62Z" fill="black"/>
<path d="M101.48 107.76C102.49 108.3 103.51 108.87 104.56 109.47C116.79 116.54 127.86 125.89 137.47 137.29C139.52 139.98 135.33 145.51 125.23 151.34C115.13 157.17 104.23 160.34 100.9 158.41C90.67 146.09 78.84 136 65.7 128.42C65.69 128.41 101.48 107.76 101.48 107.76Z" fill="black"/>
<path d="M101.48 107.76C102.49 108.3 103.51 108.87 104.56 109.47C116.79 116.54 127.86 125.89 137.47 137.29C139.52 139.98 135.33 145.51 125.23 151.34C115.13 157.17 104.23 160.34 100.9 158.41C90.67 146.09 78.84 136 65.7 128.42C65.69 128.41 101.48 107.76 101.48 107.76Z" fill="black"/>
<path d="M120.38 120.42L123.45 120.95L124.16 123.63L121.83 123.53L120.38 120.42Z" fill="white"/>
<path d="M112.82 114.71H115.34L116.6 117.45L114.42 118L112.82 114.71Z" fill="white"/>
<path d="M109.04 112.19L105.72 107.97L101.49 107.76L104.47 112.8L109.04 112.19Z" fill="white"/>
<path d="M101.49 158.66L104.14 161.37L109.04 158.18L105.27 156.21L101.49 158.66Z" fill="white"/>
<path d="M112.82 157.05L114.71 158.79L116.6 155.62L114.13 154.88L112.82 157.05Z" fill="white"/>
<path d="M120.38 153.91L121.87 155.29L124.16 151.94L122.27 150.88L120.38 153.91Z" fill="white"/>
<path d="M150.73 170.1C152.16 169.06 153.93 169.9 154.68 171.99C155.44 174.08 154.9 176.61 153.47 177.66C152.04 178.7 150.27 177.86 149.51 175.77C148.75 173.68 149.3 171.15 150.73 170.1ZM123.5 185.82C124.93 184.78 126.7 185.62 127.46 187.71C128.22 189.8 127.68 192.33 126.25 193.38C124.82 194.42 123.05 193.58 122.29 191.49C121.53 189.4 122.08 186.87 123.5 185.82Z" fill="#FD9D52"/>
<path d="M124.94 194.33C124.69 194.33 124.43 194.29 124.18 194.22C123.15 193.9 122.28 192.97 121.81 191.67C120.97 189.36 121.58 186.61 123.2 185.43C123.92 184.91 124.75 184.75 125.56 185C126.59 185.32 127.46 186.25 127.93 187.55C128.77 189.87 128.16 192.61 126.54 193.79C126.05 194.14 125.5 194.33 124.94 194.33ZM123.8 186.23C122.57 187.13 122.1 189.46 122.77 191.32C123.13 192.33 123.76 193.03 124.49 193.25C124.99 193.4 125.5 193.3 125.96 192.97C127.21 192.06 127.68 189.77 126.99 187.88C126.63 186.87 126 186.17 125.27 185.95C124.76 185.8 124.26 185.89 123.8 186.23ZM152.17 178.61C151.92 178.61 151.66 178.57 151.41 178.5C150.38 178.18 149.52 177.25 149.04 175.95C148.19 173.64 148.8 170.89 150.43 169.71C151.15 169.19 151.98 169.04 152.79 169.28C153.82 169.6 154.69 170.53 155.16 171.83C156 174.15 155.39 176.89 153.77 178.07C153.28 178.42 152.73 178.61 152.17 178.61ZM152.03 170.16C151.68 170.16 151.34 170.28 151.02 170.51C149.76 171.43 149.29 173.71 149.99 175.59C150.35 176.6 150.98 177.3 151.71 177.52C152.21 177.67 152.72 177.58 153.18 177.24C154.43 176.33 154.9 174.05 154.21 172.15C153.85 171.14 153.22 170.44 152.49 170.22C152.34 170.18 152.19 170.16 152.03 170.16Z" fill="black"/>
<path d="M74.9199 168.98L72.4099 175.59L77.7499 181.69L82.6199 175.34L82.5599 171.99C82.5599 171.98 74.9199 168.98 74.9199 168.98Z" fill="#943CFF"/>
<path d="M120.38 153.91C121.64 153.3 122.9 152.64 124.16 151.94C124.16 149.1 124.16 126.55 124.16 123.62C122.92 122.52 121.66 121.45 120.38 120.41V153.91Z" fill="#FD9D52"/>
<path d="M109.04 158.18V112.19C107.56 111.25 106.07 110.35 104.56 109.47C103.52 108.87 102.48 108.29 101.48 107.76V158.66C103.08 159.21 105.77 159.01 109.04 158.18Z" fill="#943CFF"/>
<path d="M116.6 117.45C115.36 116.52 114.1 115.61 112.82 114.72V157.06C114.04 156.64 115.31 156.16 116.6 155.63C116.6 155.62 116.6 117.45 116.6 117.45Z" fill="#DD45D3"/>
<path d="M103.73 159.47C102.43 159.47 101.38 159.27 100.64 158.84C100.59 158.81 100.54 158.77 100.51 158.73C90.3099 146.45 78.5099 136.4 65.4399 128.85C65.2799 128.76 65.1899 128.59 65.1899 128.41C65.1899 128.23 65.2899 128.06 65.4399 127.97L101.23 107.32C101.38 107.23 101.57 107.23 101.72 107.31C102.73 107.86 103.76 108.43 104.81 109.03C117.09 116.12 128.2 125.52 137.85 136.96C138.42 137.71 138.6 138.6 138.39 139.63C137.72 143 133.01 147.42 125.47 151.78C117.24 156.53 108.68 159.47 103.73 159.47ZM101.22 158.01C104.45 159.74 115.27 156.51 124.97 150.9C132.15 146.75 136.8 142.46 137.41 139.43C137.56 138.7 137.44 138.08 137.07 137.59C127.51 126.26 116.49 116.94 104.31 109.9C103.36 109.35 102.42 108.83 101.49 108.33L66.6899 128.41C79.5399 135.96 91.1499 145.91 101.22 158.01Z" fill="black"/>
<path d="M283.01 278.67H327.94V230.52L283.02 204.57V278.67H283.01Z" fill="black"/>
<path d="M327.94 279.18H283.01C282.73 279.18 282.51 278.95 282.51 278.68V204.58C282.51 204.4 282.61 204.23 282.76 204.14C282.92 204.05 283.11 204.05 283.26 204.14L328.18 230.09C328.34 230.18 328.43 230.35 328.43 230.53V278.68C328.43 278.81 328.38 278.94 328.28 279.04C328.2 279.12 328.07 279.18 327.94 279.18ZM283.52 278.17H327.44V230.82L283.52 205.45V278.17Z" fill="black"/>
<path d="M256.06 240.9C249.44 244.72 244.07 254.01 244.07 261.65L235.29 266.72C233.29 267.87 231.41 270.11 230.3 272.69L227.71 278.68H308.66L312.94 253.02L274 230.54L256.06 240.9Z" fill="black"/>
<path d="M308.67 279.18H227.72C227.55 279.18 227.39 279.09 227.3 278.95C227.21 278.81 227.19 278.63 227.26 278.47L229.85 272.48C231 269.81 232.94 267.49 235.05 266.28L243.58 261.36C243.71 253.63 249.15 244.31 255.82 240.47L273.77 230.09C273.93 230 274.12 230 274.27 230.09L313.21 252.57C313.39 252.67 313.49 252.88 313.45 253.09L309.17 278.75C309.13 279 308.92 279.18 308.67 279.18ZM228.49 278.17H308.25L312.4 253.27L274.02 231.11L256.32 241.34C249.85 245.07 244.58 254.19 244.58 261.65C244.58 261.83 244.48 262 244.33 262.09L235.55 267.16C233.63 268.27 231.84 270.41 230.77 272.89L228.49 278.17Z" fill="black"/>
<path d="M402.5 135.56L283.01 204.57L327.93 230.52L402.49 187.45V135.56H402.5Z" fill="#943CFF"/>
<path d="M327.94 231.03C327.85 231.03 327.77 231.01 327.69 230.96L282.77 205.01C282.61 204.92 282.52 204.75 282.52 204.57C282.52 204.39 282.62 204.22 282.77 204.13L402.26 135.12C402.42 135.03 402.61 135.03 402.76 135.12C402.92 135.21 403.01 135.38 403.01 135.56V187.45C403.01 187.63 402.91 187.8 402.76 187.89L328.2 230.96C328.11 231.01 328.02 231.03 327.94 231.03ZM284.02 204.57L327.94 229.94L402 187.17V136.44L284.02 204.57Z" fill="black"/>
<path d="M327.94 278.67V230.52L402.5 187.45V263.56L376.35 278.67" fill="white"/>
<path d="M376.35 279.18C376.18 279.18 376.01 279.09 375.91 278.93C375.77 278.69 375.85 278.38 376.09 278.24L401.99 263.28V188.34L328.43 230.83V278.69C328.43 278.97 328.2 279.19 327.93 279.19C327.66 279.19 327.43 278.96 327.43 278.69V230.54C327.43 230.36 327.53 230.19 327.68 230.1L402.24 187.03C402.4 186.94 402.59 186.94 402.74 187.03C402.9 187.12 402.99 187.29 402.99 187.47V263.58C402.99 263.76 402.89 263.93 402.74 264.02L376.59 279.13C376.52 279.16 376.44 279.18 376.35 279.18Z" fill="black"/>
<path d="M402.5 249.73L352.39 278.67H364.38L402.51 256.65L402.5 249.73ZM340.41 278.67L402.5 242.81V235.89L333.92 275.49V278.67H340.41ZM402.5 222.05L333.92 261.66V268.58L402.5 228.97V222.05ZM402.5 208.22L333.92 247.82V254.74L402.5 215.13V208.22ZM402.5 194.38L333.92 233.98V240.9L402.5 201.3V194.38Z" fill="#DD45D3"/>
<path d="M364.38 279.18H352.39C352.16 279.18 351.96 279.03 351.9 278.81C351.84 278.59 351.94 278.36 352.13 278.24L402.24 249.3C402.4 249.21 402.59 249.21 402.74 249.3C402.9 249.39 402.99 249.56 402.99 249.74V256.66C402.99 256.84 402.89 257.01 402.74 257.1L364.61 279.12C364.55 279.15 364.47 279.18 364.38 279.18ZM354.27 278.17H364.24L402 256.36V250.6L354.27 278.17ZM340.41 279.18H333.92C333.64 279.18 333.42 278.95 333.42 278.68V275.5C333.42 275.32 333.52 275.15 333.67 275.06L402.25 235.46C402.41 235.37 402.6 235.37 402.75 235.46C402.91 235.55 403 235.72 403 235.9V242.82C403 243 402.9 243.17 402.75 243.26L340.66 279.12C340.59 279.15 340.5 279.18 340.41 279.18ZM334.43 278.17H340.28L402 242.52V236.76L334.43 275.78V278.17ZM333.93 269.09C333.84 269.09 333.76 269.07 333.68 269.02C333.52 268.93 333.43 268.76 333.43 268.58V261.66C333.43 261.48 333.53 261.31 333.68 261.22L402.26 221.61C402.42 221.52 402.61 221.52 402.76 221.61C402.92 221.7 403.01 221.87 403.01 222.05V228.97C403.01 229.15 402.91 229.32 402.76 229.41L334.18 269.03C334.1 269.07 334.01 269.09 333.93 269.09ZM334.43 261.96V267.72L402 228.68V222.92L334.43 261.96ZM333.93 255.25C333.84 255.25 333.76 255.23 333.68 255.18C333.52 255.09 333.43 254.92 333.43 254.74V247.82C333.43 247.64 333.53 247.47 333.68 247.38L402.26 207.78C402.42 207.69 402.61 207.69 402.76 207.78C402.92 207.87 403.01 208.04 403.01 208.22V215.13C403.01 215.31 402.91 215.48 402.76 215.57L334.18 255.19C334.1 255.23 334.01 255.25 333.93 255.25ZM334.43 248.11V253.87L402 214.84V209.09L334.43 248.11ZM333.93 241.41C333.84 241.41 333.76 241.39 333.68 241.34C333.52 241.25 333.43 241.08 333.43 240.9V233.98C333.43 233.8 333.53 233.63 333.68 233.54L402.26 193.94C402.42 193.85 402.61 193.85 402.76 193.94C402.92 194.03 403.01 194.2 403.01 194.38V201.3C403.01 201.48 402.91 201.65 402.76 201.74L334.18 241.34C334.1 241.38 334.01 241.41 333.93 241.41ZM334.43 234.27V240.03L402 201.01V195.25L334.43 234.27Z" fill="black"/>
<path d="M244.08 261.66L235.57 266.58L235.32 266.72C235.06 266.87 234.81 267.04 234.56 267.22C234.43 267.32 234.29 267.43 234.16 267.54C234.04 267.63 233.93 267.72 233.81 267.82C233.69 267.93 233.57 268.05 233.45 268.16C233.33 268.28 233.2 268.4 233.08 268.52C232.98 268.63 232.88 268.74 232.78 268.85C232.65 269 232.52 269.14 232.4 269.29C232.37 269.33 232.34 269.36 232.31 269.4H232.32C231.54 270.37 230.86 271.48 230.35 272.67L227.76 278.66H232.19L234.08 274.29C234.54 273.24 235.19 272.25 235.9 271.46L248.34 278.64H273.55L244.08 261.66Z" fill="#943CFF"/>
<path d="M232.17 279.19H227.74C227.57 279.19 227.41 279.1 227.32 278.96C227.23 278.82 227.21 278.64 227.28 278.48L229.87 272.49C230.38 271.31 231.05 270.2 231.86 269.17C231.87 269.14 231.89 269.12 231.91 269.1C231.92 269.09 231.98 269.02 231.98 269.02C232.14 268.83 232.27 268.68 232.4 268.53C232.54 268.37 232.63 268.28 232.71 268.19C232.82 268.07 232.93 267.97 233.04 267.86L233.18 267.72C233.28 267.63 233.37 267.54 233.47 267.45C233.56 267.38 233.64 267.31 233.73 267.24L233.95 267.07C234.05 266.99 234.15 266.9 234.26 266.83C234.53 266.64 234.8 266.46 235.07 266.3L235.33 266.15L243.84 261.23C244 261.14 244.19 261.14 244.34 261.23L273.79 278.24C273.99 278.35 274.08 278.59 274.02 278.81C273.96 279.03 273.76 279.18 273.53 279.18H248.32C248.23 279.18 248.14 279.16 248.07 279.11L235.99 272.14C235.4 272.84 234.89 273.68 234.52 274.53L232.63 278.89C232.55 279.07 232.37 279.19 232.17 279.19ZM228.5 278.18H231.84L233.6 274.12C234.07 273.05 234.74 271.99 235.52 271.15C235.68 270.97 235.94 270.93 236.14 271.05L248.46 278.16H271.65L244.08 262.24L235.56 267.17C235.32 267.31 235.08 267.47 234.84 267.64C234.75 267.7 234.67 267.77 234.58 267.84L234.35 268.02C234.28 268.08 234.2 268.14 234.13 268.2C234.04 268.27 233.96 268.36 233.88 268.44L233.79 268.53C233.63 268.68 233.53 268.78 233.43 268.88C233.35 268.96 233.28 269.04 233.2 269.13C233.01 269.34 232.89 269.48 232.77 269.63L232.75 269.62C232.73 269.66 232.71 269.7 232.68 269.74C231.9 270.71 231.26 271.78 230.78 272.9L228.5 278.18Z" fill="black"/>
<path d="M274.03 230.53L256.07 240.91C252.76 242.82 249.77 246.1 247.59 249.85L293.87 276.59L312.97 253.02L274.03 230.53Z" fill="#943CFF"/>
<path d="M293.87 277.09C293.78 277.09 293.7 277.07 293.62 277.02L247.34 250.28C247.22 250.21 247.14 250.1 247.11 249.97C247.08 249.84 247.09 249.7 247.16 249.59C249.48 245.59 252.56 242.35 255.82 240.46L273.78 230.08C273.94 229.99 274.13 229.99 274.28 230.08L313.22 252.56C313.35 252.63 313.44 252.76 313.46 252.9C313.49 253.04 313.45 253.19 313.36 253.31L294.26 276.88C294.16 277.02 294.02 277.09 293.87 277.09ZM248.28 249.66L293.75 275.93L312.21 253.15L274.03 231.11L256.32 241.34C253.32 243.07 250.48 246.01 248.28 249.66Z" fill="black"/>
<path d="M295 263.39C289.91 266.33 285.58 272.51 283.84 278.68H312.97V253L295 263.39Z" fill="white"/>
<path d="M312.96 279.18H283.83C283.67 279.18 283.52 279.11 283.43 278.98C283.34 278.85 283.3 278.69 283.35 278.54C285.2 272.01 289.67 265.89 294.75 262.96L312.71 252.57C312.87 252.48 313.06 252.48 313.21 252.57C313.37 252.66 313.46 252.83 313.46 253.01V278.68C313.47 278.95 313.24 279.18 312.96 279.18ZM284.51 278.17H312.46V253.87L295.25 263.82C290.63 266.5 286.38 272.2 284.51 278.17Z" fill="black"/>
<path d="M172.5 182.73L167.79 208.68L169.43 209.91L179.7 184.54L172.5 182.73Z" fill="white"/>
<path d="M169.43 210.42C169.32 210.42 169.22 210.39 169.13 210.32L167.49 209.09C167.34 208.97 167.26 208.78 167.3 208.6L172.01 182.65C172.04 182.51 172.12 182.39 172.23 182.32C172.35 182.24 172.49 182.22 172.63 182.25L179.83 184.06C179.97 184.1 180.09 184.19 180.16 184.32C180.23 184.45 180.23 184.6 180.18 184.74L169.91 210.11C169.85 210.25 169.73 210.36 169.58 210.41C169.52 210.42 169.48 210.42 169.43 210.42ZM168.34 208.47L169.21 209.12L179.01 184.89L172.89 183.35L168.34 208.47Z" fill="black"/>
<path d="M184.28 203.79L178.21 248.38L173.76 249.3V251.4L180.19 251.97L194.27 206.77L184.28 203.79Z" fill="black"/>
<path d="M180.19 252.47C180.18 252.47 180.16 252.47 180.15 252.47L173.72 251.9C173.46 251.88 173.26 251.66 173.26 251.4V249.3C173.26 249.06 173.43 248.86 173.66 248.81L177.77 247.96L183.79 203.72C183.81 203.57 183.89 203.44 184.02 203.36C184.14 203.28 184.3 203.26 184.44 203.3L194.43 206.28C194.56 206.32 194.67 206.41 194.73 206.53C194.79 206.65 194.81 206.79 194.77 206.92L180.69 252.12C180.6 252.33 180.41 252.47 180.19 252.47ZM174.26 250.94L179.83 251.43L193.63 207.1L184.69 204.44L178.7 248.45C178.67 248.66 178.51 248.83 178.3 248.87L174.25 249.71V250.94H174.26Z" fill="black"/>
<path d="M186.13 221.25L184.28 203.79L174.45 202.79L180.15 224.56L191.08 237.66L189.41 241.56H191.65L194.75 237.78L186.13 221.25Z" fill="black"/>
<path d="M191.65 242.06H189.41C189.24 242.06 189.08 241.98 188.99 241.83C188.9 241.69 188.88 241.51 188.95 241.35L190.5 237.73L179.77 224.87C179.72 224.81 179.69 224.75 179.67 224.68L173.97 202.91C173.93 202.75 173.97 202.58 174.07 202.45C174.18 202.32 174.34 202.25 174.5 202.28L184.33 203.28C184.57 203.3 184.75 203.49 184.78 203.73L186.62 221.1L195.2 237.54C195.29 237.72 195.27 237.94 195.14 238.09L192.04 241.87C191.95 241.99 191.8 242.06 191.65 242.06ZM190.17 241.05H191.41L194.15 237.71L185.68 221.48C185.65 221.42 185.63 221.36 185.63 221.3L183.82 204.24L175.12 203.36L180.61 224.32L191.47 237.33C191.59 237.48 191.62 237.68 191.55 237.85L190.17 241.05Z" fill="black"/>
<path d="M169.66 184.79L173.23 174.4L179.77 173.49L184.77 172.44L188.64 174.13L198.03 182.5L200.8 190.86H193.66L194.28 206.77L174.46 202.79L174.26 186.26L169.66 184.79Z" fill="#943CFF"/>
<path d="M194.26 207.27C194.23 207.27 194.19 207.27 194.16 207.26L174.34 203.28C174.11 203.23 173.94 203.03 173.94 202.79L173.74 186.62L169.5 185.27C169.37 185.23 169.26 185.14 169.2 185.02C169.14 184.9 169.13 184.76 169.17 184.63L172.74 174.24C172.8 174.06 172.96 173.93 173.15 173.9L179.69 172.99L184.65 171.94C184.75 171.92 184.86 171.93 184.96 171.97L188.83 173.66C188.88 173.68 188.92 173.71 188.96 173.75L198.35 182.12C198.42 182.18 198.47 182.25 198.49 182.34L201.26 190.71C201.31 190.86 201.28 191.03 201.19 191.16C201.1 191.29 200.94 191.37 200.78 191.37H194.16L194.76 206.76C194.77 206.91 194.7 207.06 194.58 207.16C194.5 207.23 194.38 207.27 194.26 207.27ZM174.94 202.37L193.73 206.14L193.13 190.87C193.12 190.73 193.18 190.6 193.27 190.5C193.36 190.4 193.5 190.35 193.63 190.35H200.08L197.58 182.77L188.35 174.55L184.71 172.96L179.87 173.98L173.6 174.86L170.3 184.47L174.4 185.78C174.61 185.85 174.75 186.04 174.75 186.25L174.94 202.37Z" fill="black"/>
<path d="M186.87 161.67H179.77V173.49H182.69V175.38H188.53V165.23L186.87 161.67Z" fill="white"/>
<path d="M188.53 175.88H182.69C182.41 175.88 182.19 175.65 182.19 175.38V174H179.77C179.49 174 179.27 173.77 179.27 173.5V161.68C179.27 161.4 179.5 161.18 179.77 161.18H186.87C187.07 161.18 187.24 161.29 187.33 161.47L189 165.03C189.03 165.1 189.05 165.17 189.05 165.24V175.39C189.04 175.66 188.81 175.88 188.53 175.88ZM183.19 174.88H188.03V165.34L186.55 162.18H180.27V172.99H182.69C182.97 172.99 183.19 173.22 183.19 173.49V174.88Z" fill="black"/>
<path d="M179.77 161.67L178.07 164.61H185.21L185.53 168.53L188.53 170.66V165.23L186.87 161.67H179.77Z" fill="black"/>
<path d="M188.53 171.16C188.43 171.16 188.32 171.13 188.24 171.07L185.24 168.94C185.12 168.85 185.04 168.72 185.03 168.57L184.75 165.11H178.07C177.89 165.11 177.72 165.01 177.63 164.86C177.54 164.7 177.54 164.51 177.63 164.36L179.33 161.43C179.42 161.27 179.59 161.18 179.77 161.18H186.87C187.07 161.18 187.24 161.29 187.33 161.47L189 165.03C189.03 165.1 189.05 165.17 189.05 165.24V170.67C189.05 170.86 188.94 171.03 188.78 171.12C188.69 171.15 188.61 171.16 188.53 171.16ZM186.02 168.25L188.03 169.68V165.34L186.55 162.18H180.06L178.94 164.11H185.21C185.47 164.11 185.69 164.31 185.71 164.57L186.02 168.25Z" fill="black"/>
<path d="M194 199.94L174.37 196L174.39 198L194.07 201.95L194 199.94Z" fill="black"/>
<path d="M174.3 191.21L193.81 195.12L193.73 193.12L174.28 189.22L174.3 191.21Z" fill="black"/>
<path d="M172.89 175.4L172.25 177.27L197.94 182.42L195.06 179.85L172.89 175.4Z" fill="black"/>
<path d="M170.07 183.6L200.39 189.68L199.69 187.54L170.7 181.73L170.07 183.6Z" fill="black"/>
<path d="M93.4799 -3.5L77.4299 24.31L89.4699 31.25L101.48 10.45V86.9L119.54 97.33L125.56 93.85L143.62 104.28V111.22L161.68 121.65V-3.5H93.4799Z" fill="black"/>
<path d="M161.69 122.16C161.6 122.16 161.52 122.14 161.44 122.09L143.38 111.66C143.22 111.57 143.13 111.4 143.13 111.22V104.57L125.57 94.43L119.8 97.76C119.64 97.85 119.45 97.85 119.3 97.76L101.24 87.33C101.08 87.24 100.99 87.07 100.99 86.89V12.34L89.91 31.5C89.77 31.74 89.46 31.82 89.22 31.68L77.18 24.74C77.06 24.67 76.98 24.56 76.95 24.43C76.92 24.3 76.93 24.16 77 24.05L93.05 -3.76C93.14 -3.9 93.3 -4 93.48 -4H161.69C161.97 -4 162.19 -3.77 162.19 -3.5V121.65C162.19 121.83 162.09 122 161.94 122.09C161.86 122.14 161.78 122.16 161.69 122.16ZM144.13 110.94L161.19 120.79V-2.99H93.78L78.12 24.12L89.29 30.56L101.05 10.2C101.16 10 101.4 9.91 101.62 9.96C101.84 10.02 101.99 10.22 101.99 10.45V86.6L119.55 96.74L125.32 93.41C125.48 93.32 125.67 93.32 125.82 93.41L143.88 103.84C144.04 103.93 144.13 104.1 144.13 104.28V110.94Z" fill="black"/>
<path d="M125.57 93.8499L119.56 97.3299V69.5099C119.56 61.8299 124.95 58.7199 131.6 62.5599H131.59C138.23 66.3999 143.62 75.7499 143.62 83.4199V104.28L125.57 93.8499Z" fill="black"/>
<path d="M143.62 104.79C143.53 104.79 143.45 104.77 143.37 104.72L125.57 94.43L119.81 97.76C119.65 97.85 119.46 97.85 119.31 97.76C119.15 97.67 119.06 97.5 119.06 97.32V69.51C119.06 65.61 120.4 62.69 122.83 61.28C125.27 59.87 128.47 60.17 131.85 62.12C131.87 62.13 131.89 62.15 131.91 62.16C138.65 66.11 144.12 75.62 144.12 83.42V104.28C144.12 104.46 144.02 104.63 143.87 104.72C143.79 104.76 143.7 104.79 143.62 104.79ZM125.57 93.35C125.66 93.35 125.74 93.37 125.82 93.42L143.12 103.42V83.42C143.12 75.92 137.84 66.75 131.34 62.99C131.32 62.98 131.3 62.96 131.28 62.95C128.25 61.23 125.43 60.95 123.34 62.15C121.23 63.37 120.07 65.98 120.07 69.51V96.45L125.32 93.41C125.39 93.37 125.48 93.35 125.57 93.35Z" fill="black"/>
<path d="M126.63 60.94C125.95 62.3 125.56 64.01 125.56 66.05V93.87L119.53 97.35V69.51C119.54 63.87 122.45 60.7 126.63 60.94ZM161.69 -3.5V17.36L137.6 59.07L161.69 45.16V121.65L221.89 86.89V-3.5H161.69Z" fill="#943CFF"/>
<path d="M161.69 122.16C161.6 122.16 161.52 122.14 161.44 122.09C161.28 122 161.19 121.83 161.19 121.65V46.04L137.86 59.51C137.66 59.63 137.41 59.59 137.25 59.43C137.09 59.27 137.06 59.02 137.17 58.82L161.19 17.22V-3.5C161.19 -3.78 161.42 -4 161.69 -4H221.89C222.17 -4 222.39 -3.77 222.39 -3.5V86.9C222.39 87.08 222.29 87.25 222.14 87.34L161.94 122.1C161.87 122.14 161.78 122.16 161.69 122.16ZM161.69 44.67C161.78 44.67 161.86 44.69 161.94 44.74C162.1 44.83 162.19 45 162.19 45.18V120.79L221.38 86.61V-2.99H162.2V17.37C162.2 17.46 162.18 17.55 162.13 17.62L138.98 57.7L161.44 44.73C161.52 44.69 161.61 44.67 161.69 44.67ZM119.53 97.84C119.44 97.84 119.36 97.82 119.28 97.77C119.12 97.68 119.03 97.51 119.03 97.33V69.51C119.04 66.31 119.94 63.77 121.64 62.16C122.96 60.92 124.7 60.31 126.66 60.43C126.83 60.44 126.98 60.53 127.07 60.68C127.16 60.83 127.16 61.01 127.08 61.16C126.41 62.51 126.07 64.15 126.07 66.04V93.86C126.07 94.04 125.97 94.21 125.82 94.3L119.79 97.78C119.71 97.82 119.62 97.84 119.53 97.84ZM125.86 61.44C124.48 61.51 123.28 62.01 122.33 62.9C120.84 64.31 120.04 66.6 120.04 69.51V96.47L125.06 93.57V66.04C125.06 64.32 125.33 62.77 125.86 61.44Z" fill="black"/>
<path d="M137.63 3.45L113.54 45.16L125.59 52.11L149.67 10.4L137.63 3.45ZM109.54 -3.5L89.47 31.26L101.51 38.2L125.59 -3.5C125.59 -3.5 109.54 -3.5 109.54 -3.5Z" fill="#FD9D52"/>
<path d="M125.59 52.62C125.5 52.62 125.42 52.6 125.34 52.55L113.29 45.6C113.17 45.53 113.09 45.42 113.06 45.3C113.03 45.17 113.04 45.03 113.11 44.92L137.2 3.2C137.34 2.96 137.65 2.88 137.89 3.02L149.93 9.97C150.17 10.11 150.25 10.42 150.11 10.66L126.03 52.37C125.94 52.53 125.77 52.62 125.59 52.62ZM114.23 44.98L125.4 51.43L148.98 10.59L137.81 4.14L114.23 44.98ZM101.5 38.71C101.41 38.71 101.33 38.69 101.25 38.64L89.21 31.7C89.09 31.63 89.01 31.52 88.97 31.39C88.94 31.26 88.95 31.12 89.02 31.01L109.1 -3.75C109.19 -3.9 109.36 -4 109.54 -4H125.59C125.77 -4 125.94 -3.9 126.03 -3.75C126.12 -3.59 126.12 -3.4 126.03 -3.25L101.95 38.45C101.85 38.62 101.68 38.71 101.5 38.71ZM90.15 31.08L101.32 37.52L124.72 -2.99H109.83L90.15 31.08Z" fill="black"/>
<path d="M167.7 -3.5V125.13L221.89 156.42V-3.5H167.7Z" fill="black"/>
<path d="M221.89 156.93C221.8 156.93 221.72 156.91 221.64 156.86L167.45 125.57C167.29 125.48 167.2 125.31 167.2 125.13V-3.5C167.2 -3.78 167.43 -4 167.7 -4H221.89C222.17 -4 222.39 -3.77 222.39 -3.5V156.43C222.39 156.61 222.29 156.78 222.14 156.87C222.07 156.91 221.98 156.93 221.89 156.93ZM168.21 124.84L221.39 155.55V-2.99H168.21V124.84Z" fill="black"/>
<path d="M221.89 -3.5V156.43L276.07 125.14V-3.5H221.89Z" fill="#943CFF"/>
<path d="M221.89 156.93C221.8 156.93 221.72 156.91 221.64 156.86C221.48 156.77 221.39 156.6 221.39 156.42V-3.5C221.39 -3.78 221.62 -4 221.89 -4H276.07C276.35 -4 276.57 -3.77 276.57 -3.5V125.13C276.57 125.31 276.47 125.48 276.32 125.57L222.14 156.86C222.06 156.91 221.98 156.93 221.89 156.93ZM222.39 -2.99V155.56L275.56 124.85V-2.99H222.39Z" fill="black"/>
<path d="M239.96 125.14L233.94 128.62V135.57L245.98 128.62C245.98 128.61 239.96 125.14 239.96 125.14ZM258.01 114.7L252 118.18V125.13L264.03 118.18L258.01 114.7Z" fill="white"/>
<path d="M233.93 -3.5V128.61L239.95 125.13V-3.5H233.93Z" fill="#943CFF"/>
<path d="M239.96 -3.5V125.13L245.98 128.61V-3.5H239.96Z" fill="black"/>
<path d="M252 -3.5V118.18L258.01 114.7V-3.5H252Z" fill="#943CFF"/>
<path d="M258.01 -3.5V114.7L264.03 118.18V-3.5H258.01Z" fill="black"/>
<path d="M203.83 125.14L209.85 128.62V135.57L197.81 128.62L203.83 125.14ZM185.76 114.7L191.78 118.18V125.13L179.74 118.18L185.76 114.7Z" fill="white"/>
<path d="M209.85 136.07C209.76 136.07 209.68 136.05 209.6 136L197.56 129.05C197.4 128.96 197.31 128.79 197.31 128.61C197.31 128.43 197.41 128.26 197.56 128.17L203.58 124.69C203.74 124.6 203.93 124.6 204.08 124.69L210.1 128.17C210.26 128.26 210.35 128.43 210.35 128.61V135.56C210.35 135.74 210.25 135.91 210.1 136C210.02 136.05 209.94 136.07 209.85 136.07ZM198.82 128.61L209.35 134.69V128.9L203.83 125.71L198.82 128.61ZM191.79 125.64C191.7 125.64 191.62 125.62 191.54 125.57L179.5 118.62C179.34 118.53 179.25 118.36 179.25 118.18C179.25 118 179.35 117.83 179.5 117.74L185.52 114.26C185.68 114.17 185.87 114.17 186.02 114.26L192.04 117.74C192.2 117.83 192.29 118 192.29 118.18V125.13C192.29 125.31 192.19 125.48 192.04 125.57C191.96 125.62 191.87 125.64 191.79 125.64ZM180.75 118.18L191.28 124.26V118.47L185.76 115.28L180.75 118.18Z" fill="black"/>
<path d="M203.83 -3.5V125.13L209.85 128.61V-3.5H203.83Z" fill="black"/>
<path d="M209.85 129.12C209.76 129.12 209.68 129.1 209.6 129.05L203.58 125.57C203.42 125.48 203.33 125.31 203.33 125.13V-3.5C203.33 -3.78 203.56 -4 203.83 -4H209.85C210.13 -4 210.35 -3.77 210.35 -3.5V128.61C210.35 128.79 210.25 128.96 210.1 129.05C210.02 129.09 209.94 129.12 209.85 129.12ZM204.33 124.84L209.34 127.73V-2.99H204.33V124.84Z" fill="black"/>
<path d="M197.81 -3.5V128.61L203.83 125.13V-3.5H197.81Z" fill="#FD9D52"/>
<path d="M197.81 129.12C197.72 129.12 197.64 129.1 197.56 129.05C197.4 128.96 197.31 128.79 197.31 128.61V-3.5C197.31 -3.78 197.54 -4 197.81 -4H203.83C204.11 -4 204.33 -3.77 204.33 -3.5V125.13C204.33 125.31 204.23 125.48 204.08 125.57L198.06 129.05C197.98 129.09 197.9 129.12 197.81 129.12ZM198.31 -2.99V127.74L203.32 124.85V-2.99H198.31Z" fill="black"/>
<path d="M185.76 -3.5V114.7L191.78 118.18V-3.5H185.76Z" fill="black"/>
<path d="M191.79 118.68C191.7 118.68 191.62 118.66 191.54 118.61L185.52 115.13C185.36 115.04 185.27 114.87 185.27 114.69V-3.5C185.27 -3.78 185.5 -4 185.77 -4H191.79C192.07 -4 192.29 -3.77 192.29 -3.5V118.18C192.29 118.36 192.19 118.53 192.04 118.62C191.96 118.66 191.87 118.68 191.79 118.68ZM186.27 114.41L191.28 117.31V-2.99H186.27V114.41Z" fill="black"/>
<path d="M179.74 -3.5V118.18L185.76 114.7V-3.5H179.74Z" fill="#FD9D52"/>
<path d="M179.74 118.68C179.65 118.68 179.57 118.66 179.49 118.61C179.33 118.52 179.24 118.35 179.24 118.17V-3.5C179.24 -3.78 179.47 -4 179.74 -4H185.76C186.04 -4 186.26 -3.77 186.26 -3.5V114.7C186.26 114.88 186.16 115.05 186.01 115.14L179.99 118.62C179.92 118.66 179.83 118.68 179.74 118.68ZM180.25 -2.99V117.31L185.26 114.41V-2.99H180.25Z" fill="black"/>
<path d="M378.42 114.7V107.76L372.4 104.28V97.3301L366.38 93.8501V114.7L369.4 116.46L372.4 118.18L378.42 121.66L384.44 125.14V118.19L378.42 114.7Z" fill="black"/>
<path d="M330.26 -3.5V156.43L384.44 125.14V-3.5H330.26Z" fill="#943CFF"/>
<path d="M330.26 156.93C330.17 156.93 330.09 156.91 330.01 156.86C329.85 156.77 329.76 156.6 329.76 156.42V-3.5C329.76 -3.78 329.99 -4 330.26 -4H384.44C384.72 -4 384.94 -3.77 384.94 -3.5V125.13C384.94 125.31 384.84 125.48 384.69 125.57L330.51 156.86C330.44 156.91 330.35 156.93 330.26 156.93ZM330.76 -2.99V155.56L383.93 124.85V-2.99H330.76Z" fill="black"/>
<path d="M342.3 93.8501V128.61L348.31 125.13V90.3701L342.3 93.8501Z" fill="#DD45D3"/>
<path d="M342.3 129.12C342.21 129.12 342.13 129.1 342.05 129.05C341.89 128.96 341.8 128.79 341.8 128.61V93.85C341.8 93.67 341.9 93.5001 342.05 93.4101L348.06 89.93C348.22 89.84 348.41 89.84 348.56 89.93C348.72 90.02 348.81 90.1901 348.81 90.3701V125.13C348.81 125.31 348.71 125.48 348.56 125.57L342.55 129.05C342.48 129.09 342.39 129.12 342.3 129.12ZM342.81 94.14V127.74L347.81 124.85V91.25L342.81 94.14Z" fill="black"/>
<path d="M348.31 90.3701V125.13L354.33 128.61V86.9001L348.31 90.3701Z" fill="black"/>
<path d="M354.33 129.12C354.24 129.12 354.16 129.1 354.08 129.05L348.06 125.57C347.9 125.48 347.81 125.31 347.81 125.13V90.3701C347.81 90.1901 347.91 90.0201 348.06 89.9301L354.08 86.4501C354.24 86.3601 354.43 86.3601 354.58 86.4501C354.74 86.5401 354.83 86.7101 354.83 86.8901V128.6C354.83 128.78 354.73 128.95 354.58 129.04C354.51 129.09 354.42 129.12 354.33 129.12ZM348.82 124.84L353.83 127.74V87.7701L348.82 90.6601V124.84Z" fill="black"/>
<path d="M348.31 125.14L342.3 128.62V135.57L348.31 132.09L354.33 128.61L348.31 125.14Z" fill="white"/>
<path d="M342.3 136.07C342.21 136.07 342.13 136.05 342.05 136C341.89 135.91 341.8 135.74 341.8 135.56V128.61C341.8 128.43 341.9 128.26 342.05 128.17L348.06 124.69C348.22 124.6 348.41 124.6 348.56 124.69L354.58 128.17C354.74 128.26 354.83 128.43 354.83 128.61C354.83 128.79 354.73 128.96 354.58 129.05L342.56 136C342.48 136.05 342.39 136.07 342.3 136.07ZM342.81 128.9V134.69L353.33 128.61L348.32 125.71L342.81 128.9Z" fill="black"/>
<path d="M360.36 83.4202V118.18L366.38 114.7V79.9402L360.36 83.4202Z" fill="#DD45D3"/>
<path d="M360.36 118.68C360.27 118.68 360.19 118.66 360.11 118.61C359.95 118.52 359.86 118.35 359.86 118.17V83.4201C359.86 83.2401 359.96 83.0701 360.11 82.9801L366.13 79.5001C366.29 79.4101 366.48 79.4101 366.63 79.5001C366.79 79.5901 366.88 79.7601 366.88 79.9401V114.7C366.88 114.88 366.78 115.05 366.63 115.14L360.61 118.62C360.53 118.66 360.44 118.68 360.36 118.68ZM360.86 83.7101V117.31L365.87 114.41V80.8101L360.86 83.7101Z" fill="black"/>
<path d="M366.38 79.94V114.7L372.4 118.18V76.47L366.38 79.94Z" fill="black"/>
<path d="M372.4 118.68C372.31 118.68 372.23 118.66 372.15 118.61L366.13 115.13C365.97 115.04 365.88 114.87 365.88 114.69V79.9399C365.88 79.7599 365.98 79.5899 366.13 79.4999L372.15 76.0199C372.31 75.9299 372.5 75.9299 372.65 76.0199C372.81 76.1099 372.9 76.2799 372.9 76.4599V118.17C372.9 118.35 372.8 118.52 372.65 118.61C372.57 118.66 372.48 118.68 372.4 118.68ZM366.88 114.41L371.89 117.31V77.3399L366.88 80.2399V114.41Z" fill="black"/>
<path d="M366.38 114.7L360.36 118.18V125.13L366.38 121.65L372.4 118.17L366.38 114.7Z" fill="white"/>
<path d="M360.36 125.64C360.27 125.64 360.19 125.62 360.11 125.57C359.95 125.48 359.86 125.31 359.86 125.13V118.18C359.86 118 359.96 117.83 360.11 117.74L366.13 114.26C366.29 114.17 366.48 114.17 366.63 114.26L372.65 117.74C372.81 117.83 372.9 118 372.9 118.18C372.9 118.36 372.8 118.53 372.65 118.62L360.61 125.57C360.53 125.62 360.44 125.64 360.36 125.64ZM360.86 118.47V124.26L371.39 118.18L366.38 115.28L360.86 118.47Z" fill="black"/>
<path d="M318.22 128.61L312.2 132.09L306.18 128.61L312.2 125.13L318.22 128.61Z" fill="#FD9D52"/>
<path d="M318.22 135.57L312.2 132.09L318.22 128.61V135.57Z" fill="#FD9D52"/>
<path d="M318.22 93.8501V128.61L312.2 125.13V90.3701L318.22 93.8501Z" fill="black"/>
<path d="M312.2 111.23V118.18L306.18 121.66V114.71L312.2 111.23ZM312.2 118.18V125.13L306.18 128.61V121.66L312.2 118.18Z" fill="#943CFF"/>
<path d="M312.2 104.28V111.22L306.18 114.7V107.76L312.2 104.28Z" fill="#943CFF"/>
<path d="M312.2 97.3299V104.28L306.18 107.76V100.81L312.2 97.3299ZM312.2 90.3699V97.3199L306.18 100.8V93.8499L312.2 90.3699ZM312.2 90.3699L306.18 93.8499V86.8999L312.2 90.3699Z" fill="#943CFF"/>
<path d="M300.16 118.18L294.14 121.66L288.12 118.18L294.14 114.7L300.16 118.18Z" fill="#FD9D52"/>
<path d="M300.16 125.14L294.14 121.66L300.16 118.18V125.14Z" fill="#FD9D52"/>
<path d="M300.16 83.4199V118.18L294.14 114.7V79.9399L300.16 83.4199Z" fill="black"/>
<path d="M294.14 100.81V107.76L288.12 111.23V104.29L294.14 100.81ZM294.14 107.76V114.7L288.12 118.18V111.23L294.14 107.76ZM294.14 93.85V100.8L288.12 104.28V97.33L294.14 93.85ZM294.14 86.9V93.85L288.12 97.33V90.38L294.14 86.9ZM294.14 79.94V86.89L288.12 90.37V83.42L294.14 79.94ZM294.14 79.94L288.12 83.42V76.47L294.14 79.94Z" fill="#943CFF"/>
<path d="M342.3 24.3201V59.0801L348.31 55.6001V20.8401L342.3 24.3201Z" fill="#DD45D3"/>
<path d="M342.3 59.58C342.21 59.58 342.13 59.56 342.05 59.51C341.89 59.42 341.8 59.25 341.8 59.07V24.32C341.8 24.14 341.9 23.97 342.05 23.88L348.06 20.4C348.22 20.31 348.41 20.31 348.56 20.4C348.72 20.49 348.81 20.66 348.81 20.84V55.6C348.81 55.78 348.71 55.95 348.56 56.04L342.55 59.52C342.48 59.56 342.39 59.58 342.3 59.58ZM342.81 24.61V58.21L347.81 55.32V21.72L342.81 24.61Z" fill="black"/>
<path d="M348.31 55.6001L342.3 59.0801V66.0301L348.31 62.5501L354.33 59.0701L348.31 55.6001Z" fill="white"/>
<path d="M342.3 66.54C342.21 66.54 342.13 66.52 342.05 66.47C341.89 66.38 341.8 66.21 341.8 66.03V59.08C341.8 58.9 341.9 58.73 342.05 58.64L348.06 55.16C348.22 55.07 348.41 55.07 348.56 55.16L354.58 58.64C354.74 58.73 354.83 58.9 354.83 59.08C354.83 59.26 354.73 59.43 354.58 59.52L342.55 66.47C342.48 66.52 342.39 66.54 342.3 66.54ZM342.81 59.37V65.16L353.33 59.08L348.32 56.18L342.81 59.37Z" fill="black"/>
<path d="M348.31 20.8401V55.6001L354.33 59.0801V17.3701L348.31 20.8401Z" fill="black"/>
<path d="M354.33 59.58C354.24 59.58 354.16 59.56 354.08 59.51L348.06 56.03C347.9 55.94 347.81 55.77 347.81 55.59V20.84C347.81 20.66 347.91 20.49 348.06 20.4L354.08 16.92C354.24 16.83 354.43 16.83 354.58 16.92C354.74 17.01 354.83 17.18 354.83 17.36V59.07C354.83 59.25 354.73 59.42 354.58 59.51C354.51 59.56 354.42 59.58 354.33 59.58ZM348.82 55.31L353.83 58.21V18.24L348.82 21.14V55.31Z" fill="black"/>
<path d="M360.36 13.8902V48.6502L366.38 45.1702V10.4102L360.36 13.8902Z" fill="#DD45D3"/>
<path d="M360.36 49.1501C360.27 49.1501 360.19 49.1301 360.11 49.0801C359.95 48.9901 359.86 48.8201 359.86 48.6401V13.8901C359.86 13.7101 359.96 13.5401 360.11 13.4501L366.13 9.97009C366.29 9.88009 366.48 9.88009 366.63 9.97009C366.79 10.0601 366.88 10.2301 366.88 10.4101V45.1701C366.88 45.3501 366.78 45.5201 366.63 45.6101L360.61 49.0901C360.53 49.1301 360.44 49.1501 360.36 49.1501ZM360.86 14.1801V47.7801L365.87 44.8801V11.2801L360.86 14.1801Z" fill="black"/>
<path d="M366.38 10.4102V45.1702L372.4 48.6502V6.94019L366.38 10.4102Z" fill="black"/>
<path d="M372.4 49.1501C372.31 49.1501 372.23 49.1301 372.15 49.0801L366.13 45.6001C365.97 45.5101 365.88 45.3401 365.88 45.1601V10.4101C365.88 10.2301 365.98 10.0601 366.13 9.97011L372.15 6.49011C372.31 6.40011 372.5 6.40011 372.65 6.49011C372.81 6.58011 372.9 6.75011 372.9 6.93011V48.6401C372.9 48.8201 372.8 48.9901 372.65 49.0801C372.57 49.1301 372.48 49.1501 372.4 49.1501ZM366.88 44.8801L371.89 47.7801V7.81011L366.88 10.7101V44.8801Z" fill="black"/>
<path d="M366.38 45.1702L360.36 48.6502V55.6002L366.38 52.1202L372.4 48.6402L366.38 45.1702Z" fill="white"/>
<path d="M360.36 56.1101C360.27 56.1101 360.19 56.0901 360.11 56.0401C359.95 55.9501 359.86 55.7801 359.86 55.6001V48.6501C359.86 48.4701 359.96 48.3001 360.11 48.2101L366.13 44.7301C366.29 44.6401 366.48 44.6401 366.63 44.7301L372.65 48.2101C372.81 48.3001 372.9 48.4701 372.9 48.6501C372.9 48.8301 372.8 49.0001 372.65 49.0901L360.61 56.0401C360.53 56.0801 360.44 56.1101 360.36 56.1101ZM360.86 48.9401V54.7301L371.39 48.6501L366.38 45.7501L360.86 48.9401Z" fill="black"/>
<path d="M318.22 59.0801L312.2 62.5601L306.18 59.0801L312.2 55.6001L318.22 59.0801Z" fill="#FD9D52"/>
<path d="M318.22 66.0301L312.2 62.5501L318.22 59.0701V66.0301Z" fill="#FD9D52"/>
<path d="M318.22 24.3201V59.0801L312.2 55.6001V20.8401L318.22 24.3201Z" fill="black"/>
<path d="M312.2 41.6899V48.6399L306.18 52.1199V45.1699L312.2 41.6899ZM312.2 48.6499V55.5999L306.18 59.0799V52.1299L312.2 48.6499Z" fill="#943CFF"/>
<path d="M312.2 34.7501V41.6901L306.18 45.1701V38.2301L312.2 34.7501ZM312.2 27.8001V34.7501L306.18 38.2301V31.2801L312.2 27.8001ZM312.2 20.8401V27.7901L306.18 31.2701V24.3201L312.2 20.8401ZM312.2 20.8401L306.18 24.3201V17.3701L312.2 20.8401Z" fill="#943CFF"/>
<path d="M300.16 48.6499L294.14 52.1299L288.12 48.6499L294.14 45.1699L300.16 48.6499Z" fill="#FD9D52"/>
<path d="M300.16 55.5999L294.14 52.1199L300.16 48.6399V55.5999Z" fill="#FD9D52"/>
<path d="M300.16 13.8899V48.6499L294.14 45.1699V10.4099L300.16 13.8899Z" fill="black"/>
<path d="M294.14 31.2701V38.2201L288.12 41.6901V34.7501L294.14 31.2701ZM294.14 38.2301V45.1701L288.12 48.6501V41.7001L294.14 38.2301ZM294.14 24.3201V31.2701L288.12 34.7501V27.8001L294.14 24.3201ZM294.14 17.3701V24.3201L288.12 27.8001V20.8501L294.14 17.3701Z" fill="#943CFF"/>
<path d="M294.14 10.4099V17.3599L288.12 20.8399V13.8899L294.14 10.4099ZM294.14 10.4099L288.12 13.8899V6.93994L294.14 10.4099Z" fill="#943CFF"/>
<path d="M276.07 -3.5V125.13L330.26 156.42V-3.5H276.07Z" fill="black"/>
<path d="M330.26 156.93C330.17 156.93 330.09 156.91 330.01 156.86L275.82 125.57C275.66 125.48 275.57 125.31 275.57 125.13V-3.5C275.57 -3.78 275.8 -4 276.07 -4H330.26C330.54 -4 330.76 -3.77 330.76 -3.5V156.43C330.76 156.61 330.66 156.78 330.51 156.87C330.43 156.91 330.35 156.93 330.26 156.93ZM276.57 124.84L329.75 155.55V-2.99H276.57V124.84Z" fill="black"/>
<path d="M227.91 90.3801L276.07 118.19L324.24 90.3801L276.07 62.5601L227.91 90.3801Z" fill="#FD9D52"/>
<path d="M276.07 -3.5V187.71L324.24 159.9V-3.5H276.07Z" fill="#DD45D3"/>
<path d="M276.07 188.22C275.98 188.22 275.9 188.2 275.82 188.15C275.66 188.06 275.57 187.89 275.57 187.71V-3.5C275.57 -3.78 275.8 -4 276.07 -4H324.24C324.52 -4 324.74 -3.77 324.74 -3.5V159.9C324.74 160.08 324.64 160.25 324.49 160.34L276.32 188.15C276.24 188.19 276.16 188.22 276.07 188.22ZM276.57 -2.99V186.84L323.73 159.61V-2.99H276.57Z" fill="black"/>
<path d="M300.15 118.18C293.51 122.02 288.12 131.37 288.12 139.04V166.86L312.2 152.95V125.13C312.2 117.46 306.81 114.35 300.15 118.18Z" fill="#943CFF"/>
<path d="M288.12 167.36C288.03 167.36 287.95 167.34 287.87 167.29C287.71 167.2 287.62 167.03 287.62 166.85V139.03C287.62 131.2 293.13 121.65 299.9 117.73C303.28 115.78 306.48 115.49 308.92 116.89C311.36 118.3 312.7 121.22 312.71 125.12V152.94C312.71 153.12 312.61 153.29 312.46 153.38L288.38 167.29C288.3 167.34 288.21 167.36 288.12 167.36ZM300.41 118.62C293.92 122.38 288.63 131.54 288.63 139.05V166L311.71 152.67V125.15C311.7 121.62 310.54 119.01 308.43 117.79C306.31 116.56 303.46 116.86 300.41 118.62Z" fill="black"/>
<path d="M312.2 152.95L288.12 166.86V159.91L306.18 149.48L312.2 152.95Z" fill="white"/>
<path d="M288.11 167.36C288.02 167.36 287.94 167.34 287.86 167.29C287.7 167.2 287.61 167.03 287.61 166.85V159.89C287.61 159.71 287.71 159.54 287.86 159.45L305.92 149.02C306.08 148.93 306.27 148.93 306.42 149.02L312.44 152.5C312.6 152.59 312.69 152.76 312.69 152.94C312.69 153.12 312.59 153.29 312.44 153.38L288.36 167.29C288.29 167.34 288.2 167.36 288.11 167.36ZM288.62 160.2V165.99L311.19 152.95L306.18 150.05L288.62 160.2Z" fill="black"/>
<path d="M305.11 116.56C305.79 117.92 306.18 119.63 306.18 121.67V149.49L312.2 152.97V125.15C312.2 119.49 309.29 116.34 305.11 116.56ZM227.91 -3.5V159.9L276.07 187.71V-3.5H227.91Z" fill="black"/>
<path d="M276.07 188.22C275.98 188.22 275.9 188.2 275.82 188.15L227.66 160.34C227.5 160.25 227.41 160.08 227.41 159.9V-3.5C227.41 -3.78 227.64 -4 227.91 -4H276.07C276.35 -4 276.57 -3.77 276.57 -3.5V187.71C276.57 187.89 276.47 188.06 276.32 188.15C276.25 188.19 276.16 188.22 276.07 188.22ZM228.42 159.61L275.57 186.84V-2.99H228.42V159.61ZM312.2 153.47C312.11 153.47 312.03 153.45 311.95 153.4L305.93 149.92C305.77 149.83 305.68 149.66 305.68 149.48V121.66C305.68 119.76 305.34 118.12 304.67 116.78C304.59 116.63 304.6 116.45 304.69 116.3C304.78 116.15 304.93 116.06 305.1 116.05C307.06 115.95 308.81 116.55 310.13 117.8C311.82 119.41 312.72 121.94 312.72 125.14V152.96C312.72 153.14 312.62 153.31 312.47 153.4C312.37 153.44 312.28 153.47 312.2 153.47ZM306.68 149.19L311.69 152.09V125.15C311.69 122.24 310.9 119.95 309.42 118.54C308.48 117.64 307.26 117.14 305.89 117.07C306.42 118.4 306.69 119.95 306.69 121.68V149.19H306.68Z" fill="black"/>
<path d="M251.99 118.19C258.64 122.03 264.03 131.37 264.03 139.05V166.86L239.94 152.95V125.13C239.94 117.46 245.34 114.35 251.99 118.19Z" fill="black"/>
<path d="M264.03 167.36C263.94 167.36 263.86 167.34 263.78 167.29L239.69 153.38C239.53 153.29 239.44 153.12 239.44 152.94V125.12C239.44 121.22 240.78 118.3 243.22 116.89C245.66 115.48 248.86 115.79 252.24 117.74C259.02 121.65 264.53 131.21 264.53 139.04V166.85C264.53 167.03 264.43 167.2 264.28 167.29C264.2 167.34 264.12 167.36 264.03 167.36ZM240.45 152.66L263.53 165.99V139.06C263.53 131.55 258.24 122.39 251.74 118.63C248.69 116.86 245.84 116.56 243.73 117.78C241.62 119 240.45 121.61 240.45 125.13V152.66Z" fill="black"/>
<path d="M247.04 116.56C246.35 117.92 245.97 119.63 245.97 121.67V149.49L239.96 152.97V125.15C239.96 119.49 242.87 116.34 247.04 116.56Z" fill="#DD45D3"/>
<path d="M239.97 153.47C239.88 153.47 239.8 153.45 239.72 153.4C239.56 153.31 239.47 153.14 239.47 152.96V125.14C239.46 121.95 240.35 119.41 242.04 117.8C243.36 116.55 245.1 115.94 247.07 116.05C247.24 116.06 247.39 116.15 247.48 116.3C247.57 116.45 247.57 116.63 247.49 116.78C246.82 118.1 246.48 119.74 246.48 121.66V149.48C246.48 149.66 246.38 149.83 246.23 149.92L240.22 153.4C240.14 153.44 240.05 153.47 239.97 153.47ZM246.27 117.06C244.89 117.14 243.68 117.64 242.74 118.54C241.26 119.95 240.47 122.24 240.48 125.15V152.09L245.48 149.2V121.67C245.47 119.93 245.74 118.38 246.27 117.06Z" fill="black"/>
<path d="M252 173.82L258.01 177.29L264.03 173.82L258.01 170.34L252 173.82Z" fill="#FD9D52"/>
<path d="M252 173.81V180.75L258.01 184.23V177.28L252 173.81Z" fill="black"/>
<path d="M252 166.86L258.01 170.34L264.03 166.86L258.01 163.38L252 166.86Z" fill="#FD9D52"/>
<path d="M252 166.86V173.8L258.01 177.28V170.34L252 166.86Z" fill="black"/>
<path d="M245.98 177.28L252 180.76L258.01 177.28L252 173.81L245.98 177.28Z" fill="#FD9D52"/>
<path d="M245.98 177.28V184.23L252 187.71V180.76L245.98 177.28Z" fill="black"/>
<path d="M239.96 173.81V180.75L233.94 184.23V177.28L239.96 173.81ZM245.98 177.28V184.23L239.96 187.71V180.76L245.98 177.28Z" fill="#943CFF"/>
<path d="M245.98 177.28L239.96 173.81L233.94 170.33L227.92 173.81L233.94 177.28L239.96 180.76L245.98 184.24L252 180.76L245.98 177.28Z" fill="white"/>
<path d="M239.96 180.76L233.94 177.28L227.92 173.81V180.75L233.94 184.23L239.96 187.71L245.98 191.19V184.24L239.96 180.76Z" fill="black"/>
<path d="M245.98 191.69C245.89 191.69 245.81 191.67 245.73 191.62L227.67 181.19C227.51 181.1 227.42 180.93 227.42 180.75V173.81C227.42 173.63 227.52 173.46 227.67 173.37C227.82 173.28 228.02 173.28 228.17 173.37L240.21 180.31L246.23 183.79C246.39 183.88 246.48 184.05 246.48 184.23V191.18C246.48 191.36 246.38 191.53 246.23 191.62C246.15 191.67 246.07 191.69 245.98 191.69ZM228.42 180.47L245.48 190.32V184.53L228.42 174.69V180.47Z" fill="black"/>
<path d="M245.98 163.38V170.33L239.96 173.81V166.86L245.98 163.38ZM252 166.86V173.81L245.98 177.28V170.34L252 166.86Z" fill="#943CFF"/>
<path d="M252 166.86L245.98 163.38L239.96 159.9L233.94 163.38L239.96 166.86L245.98 170.34L252 173.81L258.01 170.34L252 166.86Z" fill="white"/>
<path d="M245.98 170.34L239.96 166.86L233.94 163.38V170.33L239.96 173.8L245.98 177.28L252 180.76V173.81L245.98 170.34Z" fill="black"/>
<path d="M252 152.95V159.9L245.98 163.38V156.43L252 152.95Z" fill="#943CFF"/>
<path d="M258.01 156.43V163.38L252 166.86V159.91L258.01 156.43Z" fill="#943CFF"/>
<path d="M258.01 156.43L252 152.95L245.98 149.47L239.96 152.95L245.98 156.43L252 159.91L258.01 163.39L264.03 159.91L258.01 156.43Z" fill="white"/>
<path d="M258.01 163.89C257.92 163.89 257.84 163.87 257.76 163.82L239.71 153.39C239.55 153.3 239.46 153.13 239.46 152.95C239.46 152.77 239.56 152.6 239.71 152.51L245.73 149.03C245.89 148.94 246.08 148.94 246.23 149.03L264.28 159.46C264.44 159.55 264.53 159.72 264.53 159.9C264.53 160.08 264.43 160.25 264.28 160.34L258.26 163.82C258.18 163.86 258.09 163.89 258.01 163.89ZM240.96 152.95L258 162.8L263.01 159.9L257.74 156.86L245.96 150.05L240.96 152.95Z" fill="black"/>
<path d="M252 159.91L245.98 156.43L239.96 152.95V159.9L245.98 163.38L252 166.86L258.01 170.34V163.39L252 159.91Z" fill="black"/>
<path d="M258.01 163.38V170.33L252 173.81V180.75L245.98 184.23V191.18L252 187.7L258.01 184.22L264.03 180.74V159.89L258.01 163.38Z" fill="#DD45D3"/>
<path d="M245.98 191.69C245.89 191.69 245.81 191.67 245.73 191.62C245.57 191.53 245.48 191.36 245.48 191.18V184.23C245.48 184.05 245.58 183.88 245.73 183.79L251.5 180.46V173.81C251.5 173.63 251.6 173.46 251.75 173.37L257.51 170.04V163.38C257.51 163.2 257.61 163.03 257.76 162.94L263.78 159.46C263.94 159.37 264.13 159.37 264.28 159.46C264.44 159.55 264.53 159.72 264.53 159.9V180.75C264.53 180.93 264.43 181.1 264.28 181.19L246.23 191.62C246.15 191.67 246.06 191.69 245.98 191.69ZM246.48 184.53V190.32L263.52 180.47V160.78L258.51 163.67V170.33C258.51 170.51 258.41 170.68 258.26 170.77L252.5 174.1V180.75C252.5 180.93 252.4 181.1 252.25 181.19L246.48 184.53Z" fill="black"/>
<path d="M245.98 191.69C245.7 191.69 245.48 191.46 245.48 191.19V184.24C245.48 184.06 245.58 183.89 245.73 183.8L251.5 180.47V173.82C251.5 173.64 251.6 173.47 251.75 173.38L257.51 170.05V163.39C257.51 163.21 257.61 163.04 257.76 162.95L263.78 159.47C263.94 159.38 264.13 159.38 264.28 159.47C264.44 159.56 264.53 159.73 264.53 159.91V180.76C264.53 181.04 264.3 181.26 264.03 181.26C263.76 181.26 263.53 181.03 263.53 180.76V160.78L258.52 163.67V170.33C258.52 170.51 258.42 170.68 258.27 170.77L252.51 174.1V180.75C252.51 180.93 252.41 181.1 252.26 181.19L246.49 184.52V191.18C246.48 191.47 246.25 191.69 245.98 191.69Z" fill="black"/>
<path d="M300.15 48.6499C293.51 52.4899 288.12 61.8399 288.12 69.5099V97.3299L312.2 83.4199V55.5999C312.2 47.9299 306.81 44.8199 300.15 48.6499Z" fill="#943CFF"/>
<path d="M288.12 97.83C288.03 97.83 287.95 97.81 287.87 97.76C287.71 97.67 287.62 97.5 287.62 97.32V69.51C287.62 61.68 293.13 52.13 299.9 48.21C303.28 46.26 306.48 45.97 308.92 47.37C311.36 48.78 312.7 51.7 312.71 55.6V83.42C312.71 83.6 312.61 83.77 312.46 83.86L288.38 97.77C288.3 97.81 288.21 97.83 288.12 97.83ZM300.41 49.08C293.91 52.84 288.63 62 288.63 69.51V96.45L311.71 83.12V55.6C311.7 52.07 310.54 49.46 308.43 48.24C306.31 47.03 303.46 47.32 300.41 49.08Z" fill="black"/>
<path d="M312.2 83.4202L288.12 97.3302V90.3802L306.18 79.9502L312.2 83.4202Z" fill="white"/>
<path d="M288.11 97.8301C288.02 97.8301 287.94 97.8101 287.86 97.7601C287.7 97.6701 287.61 97.5001 287.61 97.3201V90.3701C287.61 90.1901 287.71 90.0201 287.86 89.9301L305.92 79.5001C306.08 79.4101 306.27 79.4101 306.42 79.5001L312.44 82.9801C312.6 83.0701 312.69 83.2401 312.69 83.4201C312.69 83.6001 312.59 83.7701 312.44 83.8601L288.36 97.7701C288.29 97.8101 288.2 97.8301 288.11 97.8301ZM288.62 90.6601V96.4501L311.19 83.4101L306.18 80.5101L288.62 90.6601Z" fill="black"/>
<path d="M305.11 47.0298C305.79 48.3898 306.18 50.0998 306.18 52.1398V79.9598L312.2 83.4398V55.5998C312.2 49.9598 309.29 46.7998 305.11 47.0298ZM252 48.6598C258.65 52.4998 264.04 61.8398 264.04 69.5198V97.3298L239.96 83.4198V55.5998C239.94 47.9298 245.34 44.8198 252 48.6598Z" fill="black"/>
<path d="M264.04 97.8299C263.95 97.8299 263.87 97.8099 263.79 97.7599L239.7 83.8599C239.54 83.7699 239.45 83.5999 239.45 83.4199V55.5999C239.44 51.6999 240.78 48.7799 243.22 47.3799C245.66 45.9699 248.87 46.2699 252.25 48.2199C259.03 52.1399 264.54 61.6899 264.54 69.5199V97.3299C264.54 97.5099 264.44 97.6799 264.29 97.7699C264.21 97.8099 264.13 97.8299 264.04 97.8299ZM240.46 83.1299L263.54 96.4599V69.5199C263.54 62.0099 258.25 52.8499 251.75 49.0899C248.69 47.3199 245.84 47.0199 243.73 48.2499C241.62 49.4699 240.46 52.0799 240.47 55.5999V83.1299H240.46ZM312.2 83.9299C312.11 83.9299 312.03 83.9099 311.95 83.8599L305.93 80.3799C305.77 80.2899 305.68 80.1199 305.68 79.9399V52.1399C305.68 50.2399 305.34 48.5999 304.67 47.2599C304.59 47.1099 304.6 46.9299 304.69 46.7799C304.78 46.6299 304.93 46.5399 305.1 46.5299C307.06 46.4199 308.81 47.0299 310.13 48.2799C311.82 49.8799 312.72 52.4199 312.72 55.6099V83.4399C312.72 83.6199 312.62 83.7899 312.47 83.8799C312.37 83.9099 312.28 83.9299 312.2 83.9299ZM306.68 79.6599L311.69 82.5599V55.5999C311.69 52.6899 310.9 50.4099 309.42 48.9999C308.48 48.0999 307.26 47.5999 305.88 47.5299C306.41 48.8599 306.68 50.4099 306.68 52.1399V79.6599Z" fill="black"/>
<path d="M247.04 47.03C246.35 48.39 245.97 50.1001 245.97 52.1401V79.96L239.96 83.4401V55.6C239.96 49.9601 242.87 46.8 247.04 47.03Z" fill="#DD45D3"/>
<path d="M239.97 83.93C239.88 83.93 239.8 83.91 239.72 83.86C239.56 83.77 239.47 83.6 239.47 83.42V55.6C239.46 52.41 240.35 49.88 242.04 48.27C243.36 47.02 245.1 46.4 247.07 46.52C247.24 46.53 247.39 46.62 247.48 46.77C247.57 46.92 247.57 47.1 247.49 47.25C246.82 48.57 246.48 50.21 246.48 52.13V79.95C246.48 80.13 246.38 80.3 246.23 80.39L240.22 83.87C240.14 83.91 240.05 83.93 239.97 83.93ZM246.27 47.53C244.89 47.61 243.68 48.11 242.74 49.01C241.26 50.42 240.47 52.7 240.48 55.61V82.57L245.48 79.68V52.14C245.47 50.39 245.74 48.85 246.27 47.53Z" fill="black"/>
<path d="M288.47 -3.5C288.25 -2.32 288.11 -1.16 288.11 -0.02V27.8L312.19 13.89V-3.5H288.47Z" fill="#943CFF"/>
<path d="M288.11 28.3C288.02 28.3 287.94 28.28 287.86 28.23C287.7 28.14 287.61 27.97 287.61 27.79V-0.02C287.61 -1.12 287.73 -2.29 287.97 -3.59C288.01 -3.83 288.22 -4 288.46 -4H312.19C312.47 -4 312.69 -3.77 312.69 -3.5V13.89C312.69 14.07 312.59 14.24 312.44 14.33L288.36 28.24C288.29 28.28 288.2 28.3 288.11 28.3ZM288.89 -2.99C288.71 -1.91 288.62 -0.94 288.62 -0.02V26.92L311.7 13.6V-2.99H288.89Z" fill="black"/>
<path d="M312.2 13.8902L288.11 27.8002V20.8502L306.17 10.4202L312.2 13.8902Z" fill="white"/>
<path d="M288.11 28.3001C288.02 28.3001 287.94 28.2801 287.86 28.2301C287.7 28.1401 287.61 27.9701 287.61 27.7901V20.8401C287.61 20.6601 287.71 20.4901 287.86 20.4001L305.92 9.97009C306.08 9.88009 306.27 9.88009 306.42 9.97009L312.44 13.4501C312.6 13.5401 312.69 13.7101 312.69 13.8901C312.69 14.0701 312.59 14.2401 312.44 14.3301L288.36 28.2401C288.29 28.2801 288.2 28.3001 288.11 28.3001ZM288.62 21.1301V26.9201L311.19 13.8801L306.18 10.9801L288.62 21.1301Z" fill="black"/>
<path d="M306.18 -3.5V10.41L312.2 13.89V-3.5H306.18ZM239.96 13.89L264.04 27.8V-0.02C264.04 -1.15 263.91 -2.32 263.7 -3.5H239.97V13.89H239.96Z" fill="black"/>
<path d="M264.04 28.3C263.95 28.3 263.87 28.28 263.79 28.23L239.7 14.32C239.51 14.21 239.41 13.99 239.46 13.78V-3.5C239.46 -3.78 239.69 -4 239.96 -4H263.69C263.93 -4 264.14 -3.82 264.19 -3.59C264.43 -2.27 264.54 -1.1 264.54 -0.02V27.8C264.54 27.98 264.44 28.15 264.29 28.24C264.21 28.28 264.13 28.3 264.04 28.3ZM240.47 13.6L263.54 26.92V-0.02C263.54 -0.92 263.45 -1.9 263.27 -2.99H240.47V13.6ZM312.2 14.39C312.11 14.39 312.03 14.37 311.95 14.32L305.93 10.84C305.77 10.75 305.68 10.58 305.68 10.4V-3.5C305.68 -3.78 305.91 -4 306.18 -4H312.2C312.48 -4 312.7 -3.77 312.7 -3.5V13.89C312.7 14.07 312.6 14.24 312.45 14.33C312.37 14.37 312.28 14.39 312.2 14.39ZM306.68 10.12L311.69 13.02V-2.99H306.68V10.12Z" fill="black"/>
<path d="M239.96 13.8902L264.03 27.8002V20.8502L245.98 10.4202L239.96 13.8902ZM239.96 83.4202L264.03 97.3302V90.3802L245.98 79.9502L239.96 83.4202Z" fill="white"/>
<path d="M264.03 97.8301C263.94 97.8301 263.86 97.8101 263.78 97.7601L239.7 83.8601C239.54 83.7701 239.45 83.6001 239.45 83.4201C239.45 83.2401 239.55 83.0701 239.7 82.9801L245.72 79.5001C245.88 79.4101 246.07 79.4101 246.22 79.5001L264.27 89.9301C264.43 90.0201 264.52 90.1901 264.52 90.3701V97.3201C264.52 97.5001 264.42 97.6701 264.27 97.7601C264.2 97.8101 264.12 97.8301 264.03 97.8301ZM240.96 83.4201L263.52 96.4601V90.6701L245.97 80.5301L240.96 83.4201ZM264.03 28.3001C263.94 28.3001 263.86 28.2801 263.78 28.2301L239.7 14.3301C239.54 14.2401 239.45 14.0701 239.45 13.8901C239.45 13.7101 239.55 13.5401 239.7 13.4501L245.72 9.97009C245.88 9.88009 246.07 9.88009 246.22 9.97009L264.27 20.4001C264.43 20.4901 264.52 20.6601 264.52 20.8401V27.7901C264.52 27.9701 264.42 28.1401 264.27 28.2301C264.2 28.2801 264.12 28.3001 264.03 28.3001ZM240.96 13.8901L263.52 26.9301V21.1401L245.97 11.0001L240.96 13.8901Z" fill="black"/>
<path d="M239.96 -3.5V13.89L245.98 10.41V-3.5H239.96Z" fill="#DD45D3"/>
<path d="M239.96 14.39C239.87 14.39 239.79 14.37 239.71 14.32C239.55 14.23 239.46 14.06 239.46 13.88V-3.5C239.46 -3.78 239.69 -4 239.96 -4H245.98C246.26 -4 246.48 -3.77 246.48 -3.5V10.41C246.48 10.59 246.38 10.76 246.23 10.85L240.21 14.33C240.13 14.37 240.04 14.39 239.96 14.39ZM240.46 -2.99V13.02L245.47 10.12V-2.99H240.46Z" fill="black"/>
<path d="M82.56 171.98C79.58 173.68 77.75 177.36 77.75 182.58C77.75 185.27 78.24 188.1 79.12 190.92L109.11 208.24L116.43 204.02C117.31 202.21 117.8 199.94 117.8 197.25C117.8 186.82 110.48 174.12 101.44 168.91C96.91 166.3 92.82 166.06 89.85 167.78L82.56 171.98Z" fill="white"/>
<path d="M103.48 208L106.07 206.51L107.11 204.71L103.73 202.71L103.48 208Z" fill="black"/>
<path d="M109.11 208.25C109.99 206.44 110.48 204.17 110.48 201.48C110.48 191.05 103.16 178.35 94.12 173.14C89.61 170.54 85.53 170.28 82.57 171.98C79.59 173.68 77.76 177.36 77.76 182.59C77.76 185.28 78.25 188.11 79.13 190.93L109.11 208.25Z" fill="#943CFF"/>
<path d="M109.11 208.76C109.02 208.76 108.94 208.74 108.86 208.69L78.87 191.38C78.76 191.32 78.68 191.21 78.64 191.09C77.72 188.13 77.25 185.27 77.25 182.6C77.25 177.34 79.05 173.42 82.31 171.55C85.56 169.69 89.84 170.1 94.36 172.71C103.52 177.99 110.98 190.9 110.98 201.49C110.98 204.18 110.5 206.53 109.56 208.48C109.5 208.61 109.39 208.7 109.25 208.74C109.21 208.75 109.16 208.76 109.11 208.76ZM79.54 190.61L108.88 207.54C109.6 205.83 109.97 203.8 109.97 201.49C109.97 191.22 102.74 178.71 93.86 173.59C89.66 171.17 85.73 170.76 82.81 172.43C79.87 174.11 78.25 177.72 78.25 182.6C78.26 185.12 78.69 187.81 79.54 190.61Z" fill="black"/>
<path d="M103.36 208.05C108.47 205.1 108.47 195.53 103.36 186.68C98.2501 177.83 89.9601 173.05 84.8501 176C79.7401 178.95 79.7401 188.52 84.8501 197.37C89.9601 206.22 98.2501 211.01 103.36 208.05Z" fill="black"/>
<path d="M101.05 204.05C104.89 201.84 104.89 194.66 101.05 188.01C97.22 181.37 91 177.78 87.16 180C83.32 182.21 83.32 189.39 87.16 196.04C91 202.68 97.22 206.27 101.05 204.05Z" fill="black"/>
<path d="M99.7201 185.96C99.2801 185.35 98.8001 184.75 98.3101 184.19L94.1201 190.14L89.9301 179.35C89.4301 179.34 88.9601 179.38 88.5201 179.48L92.7101 190.26L84.3401 185.43C84.3201 185.73 84.3101 186.03 84.3101 186.35C84.3101 186.67 84.3201 186.99 84.3401 187.32L92.7101 192.15L88.5201 198.11C88.9601 198.72 89.4401 199.32 89.9301 199.88L94.1201 193.93L98.3101 204.72C98.8101 204.73 99.2801 204.69 99.7201 204.59L95.5301 193.81L103.9 198.64C103.92 198.34 103.93 198.04 103.93 197.72C103.93 197.4 103.92 197.08 103.9 196.75L95.5301 191.92L99.7201 185.96Z" fill="#DD45D3"/>
<path d="M245.98 177.28L239.96 173.81L233.94 170.33L227.92 173.81L233.94 177.28L239.96 180.76L245.98 184.24L252 180.76L245.98 177.28Z" fill="white"/>
<path d="M245.98 184.74C245.89 184.74 245.81 184.72 245.73 184.67L227.67 174.25C227.51 174.16 227.42 173.99 227.42 173.81C227.42 173.63 227.52 173.46 227.67 173.37L233.69 169.89C233.85 169.8 234.04 169.8 234.19 169.89L246.23 176.83L252.25 180.31C252.41 180.4 252.5 180.57 252.5 180.75C252.5 180.93 252.4 181.1 252.25 181.19L246.23 184.67C246.15 184.72 246.07 184.74 245.98 184.74ZM228.92 173.81L245.98 183.65L250.99 180.75L233.93 170.91L228.92 173.81Z" fill="black"/>
<path d="M252 181.26C251.91 181.26 251.83 181.24 251.75 181.19L233.69 170.77C233.53 170.68 233.44 170.51 233.44 170.33V163.37C233.44 163.19 233.54 163.02 233.69 162.93C233.85 162.84 234.04 162.84 234.19 162.93L252.25 173.35C252.41 173.44 252.5 173.61 252.5 173.79V180.74C252.5 180.92 252.4 181.09 252.25 181.18C252.17 181.24 252.09 181.26 252 181.26ZM234.44 170.05L251.5 179.89V174.1L245.73 170.78L234.44 164.26V170.05Z" fill="black"/>
<path d="M98.03 262.19L-10.69 199.39L-16.5 196.03V301H165.46L98.03 262.19Z" fill="#943CFF"/>
<path d="M165.46 301.5H-16.5C-16.78 301.5 -17 301.27 -17 301V196.03C-17 195.85 -16.9 195.68 -16.75 195.59C-16.59 195.5 -16.4 195.5 -16.25 195.59L98.28 261.75L165.71 300.56C165.91 300.67 166 300.91 165.95 301.13C165.89 301.35 165.69 301.5 165.46 301.5ZM-15.99 300.5H163.58L97.78 262.63L-15.99 196.9V300.5Z" fill="black"/>
<path d="M252 166.86L245.98 163.38L239.96 159.9L233.94 163.38L239.96 166.86L245.98 170.34L252 173.81L258.01 170.34L252 166.86Z" fill="white"/>
<path d="M252 174.31C251.91 174.31 251.83 174.29 251.75 174.24L233.69 163.82C233.53 163.73 233.44 163.56 233.44 163.38C233.44 163.2 233.54 163.03 233.69 162.94L239.71 159.46C239.87 159.37 240.06 159.37 240.21 159.46L252.25 166.41L258.26 169.89C258.42 169.98 258.51 170.15 258.51 170.33C258.51 170.51 258.41 170.68 258.26 170.77L252.25 174.24C252.17 174.29 252.09 174.31 252 174.31ZM234.94 163.38L252 173.22L257 170.33L239.95 160.48L234.94 163.38Z" fill="black"/>
<path d="M258.01 170.84C257.92 170.84 257.84 170.82 257.76 170.77L239.71 160.34C239.55 160.25 239.46 160.08 239.46 159.9V152.94C239.46 152.76 239.56 152.59 239.71 152.5C239.87 152.41 240.06 152.41 240.21 152.5L252.25 159.46L258.26 162.94C258.42 163.03 258.51 163.2 258.51 163.38V170.33C258.51 170.51 258.41 170.68 258.26 170.77C258.18 170.82 258.09 170.84 258.01 170.84ZM240.46 159.62L257.5 169.47V163.68L240.46 153.83V159.62Z" fill="black"/>
<path d="M199.55 190.85H193.64H193.63L196.72 196.78L188.53 206.25L190.36 208.18L201.53 198.24L199.55 190.85Z" fill="white"/>
<path d="M190.36 208.68C190.23 208.68 190.09 208.63 190 208.52L188.17 206.6C187.99 206.41 187.98 206.12 188.15 205.92L196.11 196.7L193.18 191.08C193.08 190.9 193.11 190.67 193.25 190.52C193.36 190.4 193.51 190.33 193.67 190.35H199.54C199.77 190.35 199.97 190.5 200.03 190.72L202.01 198.11C202.05 198.26 202.02 198.42 201.92 198.55C201.91 198.57 201.89 198.59 201.87 198.6C201.86 198.61 201.86 198.61 201.85 198.62L190.69 208.55C190.6 208.64 190.48 208.68 190.36 208.68ZM189.21 206.24L190.39 207.48L200.96 198.08L199.16 191.37H194.46L197.16 196.56C197.26 196.74 197.23 196.97 197.09 197.12L189.21 206.24Z" fill="black"/>
<path d="M194.26 206.76L194.18 204.78L192.22 206.52L194.26 206.76Z" fill="black"/>
<path d="M194.26 207.27C194.24 207.27 194.22 207.27 194.2 207.27L192.16 207.03C191.96 207.01 191.8 206.87 191.74 206.68C191.68 206.49 191.74 206.28 191.89 206.15L193.85 204.4C194 204.27 194.2 204.24 194.38 204.31C194.56 204.39 194.68 204.56 194.69 204.75L194.77 206.74C194.78 206.89 194.72 207.03 194.61 207.13C194.51 207.22 194.39 207.27 194.26 207.27ZM193.39 206.15L193.73 206.19L193.72 205.86L193.39 206.15Z" fill="black"/>
<path d="M113.78 175.13L108.64 179.35L112.3 183.35H115.85L115.65 178.37L113.78 175.13Z" fill="white"/>
<path d="M109.12 208.74C109 208.74 108.87 208.69 108.78 208.61C108.62 208.46 108.57 208.22 108.67 208.02C109.54 206.22 109.98 204.02 109.98 201.49C109.98 191.22 102.75 178.71 93.87 173.59C89.67 171.17 85.75 170.76 82.82 172.43C82.68 172.51 82.51 172.52 82.37 172.45C82.22 172.39 82.12 172.26 82.08 172.1C82.03 171.88 82.13 171.65 82.32 171.54L89.61 167.34C92.86 165.46 97.15 165.85 101.7 168.47C103.58 169.56 105.43 170.99 107.17 172.7C95.45 155.12 80.94 141.27 63.94 131.46C48.25 122.4 36.4 120.36 35.9 120.28C35.69 120.25 35.53 120.08 35.49 119.87C35.45 119.66 35.55 119.45 35.73 119.34L77.62 95.14C77.72 95.08 77.84 95.06 77.95 95.08C78.07 95.1 90.3899 97.18 106.34 106.38C119.93 114.22 132.1 124.8 142.5 137.81C145.07 137.6 147.96 138.37 150.88 140.05C160.04 145.33 167.5 158.24 167.5 168.83C167.5 171.53 167.02 173.88 166.08 175.82C166.04 175.91 165.97 175.99 165.88 176.04L158.56 180.26C158.54 180.27 158.53 180.28 158.51 180.28L116.75 204.39C116.73 204.41 116.7 204.43 116.68 204.44L109.37 208.66C109.29 208.72 109.21 208.74 109.12 208.74ZM86.81 170.41C89.14 170.41 91.71 171.18 94.37 172.72C103.53 178 110.99 190.91 110.99 201.5C110.99 203.57 110.71 205.44 110.15 207.08L116.13 203.64C116.15 203.62 116.18 203.6 116.2 203.59L158.07 179.42C158.09 179.41 158.1 179.4 158.12 179.39L165.26 175.28C166.09 173.5 166.51 171.35 166.51 168.87C166.51 158.6 159.28 146.09 150.4 140.97C147.56 139.34 144.77 138.61 142.35 138.88C142.17 138.9 142.01 138.83 141.9 138.69C131.54 125.68 119.41 115.12 105.85 107.29C91.09 98.77 79.52 96.42 77.98 96.14L37.41 119.57C41.09 120.37 51.45 123.1 64.46 130.61C84.04 141.91 100.34 158.53 112.92 180C113.06 180.24 112.98 180.54 112.74 180.69C112.5 180.83 112.2 180.76 112.05 180.52C109.06 175.64 105.21 171.68 101.2 169.37C96.9799 166.94 93.04 166.54 90.12 168.24L86.3 170.44C86.45 170.41 86.63 170.41 86.81 170.41Z" fill="black"/>
</g>
</g>
<defs>
<clipPath id="clip0">
<rect width="400" height="277" fill="white"/>
</clipPath>
<clipPath id="clip1">
<rect width="420.01" height="305.5" fill="white" transform="translate(-17 -4)"/>
</clipPath>
</defs>
</svg>
