<svg width="400" height="277" viewBox="0 0 400 277" fill="none" xmlns="http://www.w3.org/2000/svg">
<g clip-path="url(#clip0)">
<rect width="400" height="277" fill="white"/>
<g clip-path="url(#clip1)">
<path d="M395.24 316.57H6.72003C2.75003 316.57 -0.469971 313.35 -0.469971 309.38V7.19C-0.469971 3.22 2.75003 0 6.72003 0H402.43V309.38C402.43 313.35 399.21 316.57 395.24 316.57Z" fill="#6A11EA"/>
<path d="M224.86 0H-0.47998V130.1L224.86 0Z" fill="#943CFF"/>
<path d="M591.08 244.55C592.68 243.62 594.1 242.52 595.27 241.25C599.69 236.42 597.82 230.45 591.13 226.59L273.3 43.0998C264.7 38.1298 250.75 38.1298 242.15 43.0998L-194.01 294.91C-202.61 299.88 -202.61 307.93 -194.01 312.9L123.77 496.37C132.37 501.34 146.32 501.34 154.92 496.37L591.08 244.55Z" fill="black"/>
<path d="M139.34 500.6C133.61 500.6 127.87 499.34 123.5 496.82L-194.27 313.35C-198.6 310.85 -200.98 307.5 -200.98 303.91C-200.98 300.32 -198.6 296.97 -194.27 294.47L241.89 42.6499C250.62 37.6099 264.83 37.6099 273.56 42.6499L591.38 226.14C595.22 228.36 597.6 231.31 598.09 234.45C598.48 236.96 597.63 239.43 595.65 241.6C594.48 242.88 593.03 244.02 591.34 245L155.18 496.82C150.81 499.34 145.08 500.6 139.34 500.6ZM257.73 39.8899C252.18 39.8899 246.63 41.1099 242.41 43.5499L-193.75 295.36C-197.74 297.67 -199.94 300.7 -199.94 303.91C-199.94 307.11 -197.74 310.15 -193.75 312.46L124.02 495.93C132.47 500.81 146.21 500.81 154.66 495.93L590.82 244.1C592.42 243.18 593.79 242.1 594.88 240.9C596.65 238.97 597.4 236.79 597.06 234.6C596.62 231.78 594.42 229.09 590.86 227.03L273.04 43.5399C268.82 41.1099 263.27 39.8899 257.73 39.8899Z" fill="black"/>
<path d="M124.85 492.85L-195.09 308.14C-203.1 303.52 -202.09 295.44 -192.85 290.11L226.57 47.95L575.5 249.41L156.08 491.56C146.84 496.9 132.85 497.48 124.85 492.85Z" fill="white"/>
<path d="M138.41 496.46C133.23 496.46 128.29 495.42 124.6 493.29L-195.34 308.57C-198.99 306.47 -201 303.53 -201 300.31C-201 296.45 -198.12 292.57 -193.1 289.67L226.32 47.5199C226.48 47.4299 226.67 47.4299 226.82 47.5199L575.75 248.97C575.91 249.06 576 249.23 576 249.41C576 249.59 575.9 249.76 575.75 249.85L156.33 492C151.21 494.95 144.64 496.46 138.41 496.46ZM125.1 492.42C132.96 496.96 146.74 496.38 155.83 491.13L574.49 249.41L226.57 48.5299L-192.6 290.54C-197.3 293.25 -200 296.81 -200 300.31C-200 303.16 -198.17 305.79 -194.85 307.71L125.1 492.42Z" fill="black"/>
<path d="M497.66 240.44L242.15 92.9199C233.55 87.9499 219.6 87.9499 211 92.9199C202.4 97.8899 202.4 105.94 211 110.91L466.46 258.4C476.67 264.29 494.4 263.19 501.8 255.1C506.22 250.27 504.35 244.3 497.66 240.44Z" fill="white"/>
<path d="M481.94 262.65C476.33 262.65 470.68 261.42 466.21 258.84L210.74 111.34C206.42 108.84 204.04 105.5 204.04 101.91C204.04 98.33 206.42 94.98 210.74 92.48C219.47 87.44 233.67 87.44 242.4 92.48L497.91 240C501.75 242.22 504.13 245.16 504.61 248.3C505 250.8 504.15 253.27 502.17 255.44C497.88 260.13 489.95 262.65 481.94 262.65ZM226.57 89.6999C221.02 89.6999 215.47 90.9199 211.24 93.3599C207.24 95.6699 205.04 98.7099 205.04 101.92C205.04 105.13 207.24 108.17 211.24 110.48L466.71 257.97C477.21 264.03 494.41 262.45 501.43 254.77C503.2 252.84 503.96 250.66 503.62 248.46C503.18 245.63 500.98 242.94 497.41 240.88L241.9 93.3599C237.67 90.9199 232.12 89.6999 226.57 89.6999Z" fill="black"/>
<path d="M170.06 109.4L476.24 286.17C479.44 288.02 479.04 291.25 475.34 293.38L403.06 335.11C399.36 337.24 393.77 337.48 390.57 335.63L84.3899 158.86C81.1899 157.01 81.5899 153.78 85.2899 151.65L157.57 109.92C161.27 107.78 166.86 107.55 170.06 109.4Z" fill="black"/>
<path d="M395.99 337.38C393.86 337.38 391.83 336.95 390.31 336.07L84.14 159.3C82.58 158.4 81.73 157.13 81.73 155.73C81.73 154.07 82.94 152.43 85.04 151.21L157.32 109.48C161.15 107.27 166.98 107.03 170.32 108.96L476.5 285.73C478.06 286.63 478.91 287.9 478.91 289.3C478.91 290.96 477.7 292.6 475.6 293.82L403.32 335.55C401.22 336.76 398.54 337.38 395.99 337.38ZM164.64 108.65C162.27 108.65 159.77 109.23 157.82 110.35L85.54 152.08C83.76 153.11 82.73 154.44 82.73 155.73C82.73 156.76 83.41 157.72 84.64 158.43L390.82 335.2C393.88 336.97 399.26 336.73 402.81 334.68L475.09 292.95C476.87 291.92 477.9 290.59 477.9 289.3C477.9 288.27 477.22 287.31 475.99 286.6L169.81 109.83C168.43 109.04 166.58 108.65 164.64 108.65Z" fill="black"/>
<path d="M170.06 105.26L476.24 282.03C479.44 283.88 479.04 287.11 475.34 289.24L403.06 330.97C399.36 333.1 393.77 333.34 390.57 331.49L84.3899 154.72C81.1899 152.87 81.5899 149.64 85.2899 147.51L157.57 105.78C161.27 103.64 166.86 103.41 170.06 105.26Z" fill="#EDF2F7"/>
<path d="M395.99 333.24C393.86 333.24 391.83 332.81 390.31 331.93L84.14 155.16C82.58 154.26 81.73 152.99 81.73 151.59C81.73 149.93 82.94 148.29 85.04 147.07L157.32 105.34C161.15 103.13 166.98 102.89 170.32 104.82L476.49 281.6C478.05 282.5 478.9 283.77 478.9 285.17C478.9 286.83 477.69 288.47 475.59 289.69L403.31 331.42C401.22 332.62 398.54 333.24 395.99 333.24ZM164.64 104.51C162.27 104.51 159.77 105.09 157.82 106.21L85.54 147.94C83.76 148.97 82.73 150.3 82.73 151.59C82.73 152.62 83.41 153.58 84.64 154.29L390.82 331.06C393.88 332.82 399.26 332.59 402.81 330.54L475.09 288.81C476.87 287.78 477.9 286.45 477.9 285.16C477.9 284.13 477.22 283.17 475.99 282.46L169.81 105.7C168.43 104.9 166.58 104.51 164.64 104.51Z" fill="black"/>
<path d="M164.26 182.85L109.74 151.38L164.26 119.9L218.78 151.38L164.26 182.85Z" fill="#DD45D3"/>
<path d="M164.26 182.85L109.74 151.38H218.78L164.26 182.85Z" fill="#FD9D52"/>
<path d="M164.08 182.31C162.98 182.31 161.92 182.08 161.11 181.62L112.39 153.49C111.53 152.99 111.06 152.28 111.06 151.49C111.06 150.57 111.71 149.67 112.84 149.01L160.66 121.4C162.68 120.23 165.64 120.12 167.41 121.14L216.13 149.27C216.99 149.77 217.46 150.48 217.46 151.27C217.46 152.19 216.81 153.09 215.68 153.74L167.86 181.35C166.77 181.99 165.39 182.31 164.08 182.31ZM161.62 180.74C163.05 181.57 165.69 181.45 167.36 180.48L215.18 152.87C215.99 152.4 216.46 151.82 216.46 151.27C216.46 150.73 216.01 150.36 215.63 150.14L166.91 122.01C165.48 121.18 162.85 121.3 161.17 122.27L113.35 149.88C112.54 150.35 112.07 150.93 112.07 151.48C112.07 152.02 112.52 152.39 112.9 152.61L161.62 180.74Z" fill="black"/>
<path d="M443.1 289.88L226.57 164.87L234.36 160.37L450.88 285.38L443.1 289.88Z" fill="#A0AEC0"/>
<path d="M419.73 303.37L203.21 178.36L210.99 173.86L427.52 298.87L419.73 303.37Z" fill="#A0AEC0"/>
<path d="M288.1 254.35L179.84 191.85L187.63 187.35L295.89 249.86L288.1 254.35Z" fill="#A0AEC0"/>
<path d="M78.5901 232.32L24.0701 200.84L78.5901 169.36L133.11 200.84L78.5901 232.32Z" fill="#943CFF"/>
<path d="M78.5901 232.32L24.0701 200.84H133.11L78.5901 232.32Z" fill="#6A11EA"/>
<path d="M78.4101 231.78C77.3101 231.78 76.2501 231.55 75.4401 231.08L26.7201 202.95C25.8601 202.45 25.3901 201.74 25.3901 200.95C25.3901 200.03 26.0401 199.13 27.1701 198.47L74.9901 170.86C77.0101 169.69 79.9701 169.58 81.7401 170.6L130.46 198.73C131.32 199.23 131.79 199.94 131.79 200.73C131.79 201.65 131.14 202.55 130.01 203.21L82.1901 230.82C81.0901 231.45 79.7201 231.78 78.4101 231.78ZM78.7801 170.92C77.6301 170.92 76.4201 171.2 75.4901 171.73L27.6701 199.34C26.8601 199.81 26.3901 200.39 26.3901 200.94C26.3901 201.48 26.8401 201.85 27.2201 202.07L75.9401 230.2C77.3701 231.03 80.0001 230.91 81.6801 229.94L129.5 202.33C130.31 201.86 130.78 201.28 130.78 200.73C130.78 200.19 130.33 199.82 129.95 199.6L81.2301 171.47C80.5901 171.1 79.7101 170.92 78.7801 170.92Z" fill="black"/>
<path d="M357.42 339.34L140.9 214.33L148.69 209.83L365.21 334.84L357.42 339.34Z" fill="#A0AEC0"/>
<path d="M334.06 352.83L117.53 227.82L125.32 223.32L341.84 348.33L334.06 352.83Z" fill="#A0AEC0"/>
<path d="M202.43 303.82L94.1702 241.31L101.95 236.82L210.22 299.32L202.43 303.82Z" fill="#A0AEC0"/>
<path d="M-7.08011 281.78L-61.6101 250.31L-7.0901 218.83L47.4299 250.31L-7.08011 281.78Z" fill="#DD45D3"/>
<path d="M-7.08011 281.78L-61.6101 250.31H47.4299L-7.08011 281.78Z" fill="#C634C3"/>
<path d="M-7.26003 281.24C-8.36002 281.24 -9.42002 281.01 -10.23 280.54L-58.95 252.41C-59.81 251.91 -60.28 251.2 -60.28 250.41C-60.28 249.49 -59.63 248.59 -58.5 247.93L-10.68 220.32C-8.66002 219.15 -5.70002 219.04 -3.93002 220.06L44.79 248.19C45.65 248.69 46.12 249.4 46.12 250.19C46.12 251.11 45.47 252.01 44.34 252.67L-3.48003 280.28C-4.58002 280.92 -5.95002 281.24 -7.26003 281.24ZM-6.89003 220.39C-8.04003 220.39 -9.25002 220.67 -10.18 221.2L-58 248.81C-58.81 249.28 -59.28 249.86 -59.28 250.41C-59.28 250.95 -58.83 251.32 -58.45 251.54L-9.73003 279.67C-8.29003 280.5 -5.67004 280.38 -3.99004 279.41L43.83 251.8C44.64 251.33 45.11 250.75 45.11 250.2C45.11 249.66 44.66 249.29 44.28 249.07L-4.44003 220.94C-5.08003 220.57 -5.96003 220.39 -6.89003 220.39Z" fill="black"/>
<path d="M271.75 388.81L55.22 263.8L63.01 259.3L279.54 384.31L271.75 388.81Z" fill="#A0AEC0"/>
<path d="M248.38 402.3L31.8599 277.29L39.6499 272.79L256.17 397.8L248.38 402.3Z" fill="#A0AEC0"/>
<path d="M245.74 116.97L247.58 117.03C247.38 117.94 247.72 118.68 248.81 119.31C250.14 120.08 251.54 120.1 252.58 119.5C253.44 119.01 253.42 118.48 252.47 117.62L251.81 117.05C250.35 115.77 250.21 114.73 251.74 113.85C253.48 112.85 255.79 113.03 257.8 114.19C259.27 115.04 259.78 115.96 259.51 116.98L257.71 116.87C257.91 116.16 257.64 115.49 256.53 114.85C255.34 114.16 254.1 114.05 253.14 114.61C252.27 115.11 252.42 115.65 253.34 116.47L254 117.04C255.5 118.39 255.5 119.38 254 120.25C252.19 121.29 249.74 121.24 247.56 119.98C245.97 119.04 245.49 118.02 245.74 116.97Z" fill="#A0AEC0"/>
<path d="M260.66 118.95L261.96 119.7L260.77 120.39L260.83 120.42C262.06 120.1 263.28 120.27 264.28 120.84C266.1 121.89 265.75 123.36 263.4 124.72C261.04 126.08 258.51 126.28 256.68 125.23C255.68 124.66 255.39 123.95 255.95 123.24L255.89 123.21L251.89 125.52L250.59 124.77L260.66 118.95ZM261.39 124.27L262.62 123.56C263.84 122.86 263.92 121.95 262.76 121.28C261.78 120.71 260.43 120.58 259.66 121.03L256.99 122.57C256.22 123.02 256.44 123.79 257.43 124.36C258.6 125.03 260.17 124.98 261.39 124.27Z" fill="#A0AEC0"/>
<path d="M267.23 131.13C266.43 130.67 266.56 130.16 267.16 129.7L267.09 129.66C265.9 130.01 264.65 129.84 263.61 129.24C262.1 128.37 262.05 127.37 263.39 126.6C264.79 125.79 266.57 125.94 268.65 127.14L270.02 127.93L270.68 127.55C271.65 126.99 271.67 126.38 270.58 125.74C269.72 125.25 268.76 125.17 267.76 125.31L267.69 124.44C268.91 124.24 270.4 124.37 271.74 125.14C273.55 126.18 273.66 127.32 272.09 128.22L268.26 130.43L269.07 130.9L267.96 131.54L267.23 131.13ZM267.99 129.1L269.11 128.45L267.72 127.65C266.53 126.96 265.63 126.86 264.96 127.25L264.68 127.41C264.01 127.8 264.15 128.32 264.96 128.79C265.99 129.39 267.26 129.53 267.99 129.1Z" fill="#A0AEC0"/>
<path d="M272.99 130.26C275.32 128.92 277.98 128.75 280.06 129.95C281.49 130.78 281.69 131.7 281.07 132.54L279.46 132.22C279.94 131.67 279.78 131.08 278.94 130.59C277.69 129.87 276.21 130 275.01 130.69L273.75 131.42C272.56 132.11 272.33 132.97 273.58 133.69C274.46 134.2 275.52 134.29 276.67 134.05L277.03 134.94C275.47 135.3 273.85 135.14 272.46 134.34C270.39 133.14 270.67 131.61 272.99 130.26Z" fill="#A0AEC0"/>
<path d="M280.34 134.5C282.64 133.17 285.42 133.04 287.44 134.21C289.47 135.38 289.08 136.94 287.05 138.11L286.5 138.43L281.38 135.47L281.09 135.64C279.88 136.34 279.76 137.27 281.06 138.02C281.97 138.55 283.07 138.68 284.2 138.47L284.33 139.37C282.89 139.62 281.2 139.38 279.84 138.59C277.82 137.43 278.04 135.83 280.34 134.5ZM282.39 134.89L282.29 134.95L286.02 137.1L286.16 137.02C287.37 136.32 287.48 135.45 286.38 134.82C285.25 134.16 283.58 134.2 282.39 134.89Z" fill="#A0AEC0"/>
<path d="M290.76 144.71C289.86 144.19 289.92 143.61 290.76 143.12L295.54 140.36L294.38 139.69L295.49 139.05L296.14 139.42C296.63 139.7 296.97 139.69 297.46 139.4L298.79 138.63L299.97 139.31L297.97 140.47L299.53 141.37L298.42 142.01L296.86 141.11L291.81 144.02L293.25 144.85L292.14 145.49L290.76 144.71Z" fill="#A0AEC0"/>
<path d="M294.33 146.77L301.59 142.58L302.89 143.33L301.5 144.13L301.57 144.17C302.52 143.89 303.84 143.88 305.01 144.55L305.44 144.8L304.14 145.55L303.5 145.18C302.29 144.48 301.12 144.35 300.4 144.77L295.63 147.52L294.33 146.77Z" fill="#A0AEC0"/>
<path d="M305.14 153.02C304.34 152.56 304.47 152.05 305.07 151.59L305 151.55C303.81 151.9 302.56 151.73 301.52 151.13C300.01 150.26 299.96 149.26 301.3 148.49C302.7 147.68 304.48 147.83 306.56 149.03L307.93 149.82L308.59 149.44C309.56 148.88 309.58 148.27 308.49 147.63C307.63 147.14 306.67 147.06 305.67 147.2L305.6 146.33C306.82 146.13 308.31 146.26 309.65 147.03C311.46 148.07 311.57 149.21 310 150.11L306.17 152.32L306.98 152.79L305.87 153.43L305.14 153.02ZM305.9 150.99L307.02 150.34L305.63 149.54C304.44 148.85 303.54 148.75 302.87 149.14L302.59 149.3C301.92 149.69 302.06 150.21 302.87 150.68C303.89 151.27 305.17 151.41 305.9 150.99Z" fill="#A0AEC0"/>
<path d="M309.26 155.39L314.01 149.75L315.31 150.5L313.02 153.2L311.27 155.09L311.35 155.14L314.63 154.14L319.31 152.83L320.56 153.55L310.77 156.29L309.26 155.39Z" fill="#A0AEC0"/>
<path d="M318.04 156.27C320.34 154.94 323.12 154.81 325.14 155.98C327.17 157.15 326.78 158.71 324.75 159.88L324.2 160.2L319.08 157.24L318.79 157.41C317.58 158.11 317.46 159.04 318.76 159.79C319.67 160.32 320.77 160.45 321.9 160.24L322.03 161.14C320.59 161.39 318.9 161.15 317.54 160.36C315.52 159.2 315.74 157.6 318.04 156.27ZM320.09 156.66L319.99 156.72L323.72 158.87L323.86 158.79C325.07 158.09 325.18 157.22 324.08 156.59C322.95 155.93 321.28 155.97 320.09 156.66Z" fill="#A0AEC0"/>
<path d="M324.38 164.12C323.48 163.6 323.55 163.03 324.35 162.57L333.4 157.35L334.7 158.1L325.43 163.45L326.47 164.05L325.36 164.69L324.38 164.12Z" fill="#A0AEC0"/>
<path d="M237.59 101.91C237.59 98.4 232.66 95.55 226.58 95.55C220.5 95.55 215.57 98.4 215.57 101.91C215.57 105.1 219.64 107.73 224.93 108.19V112.08C224.93 112.61 225.67 113.03 226.58 113.03C227.49 113.03 228.23 112.6 228.23 112.08V108.19C233.52 107.73 237.59 105.1 237.59 101.91ZM226.57 106.36C222.31 106.36 218.86 104.37 218.86 101.91C218.86 99.45 222.31 97.46 226.57 97.46C230.83 97.46 234.28 99.45 234.28 101.91C234.28 104.37 230.83 106.36 226.57 106.36Z" fill="#A0AEC0"/>
<path d="M591.08 240.41C592.68 239.48 594.1 238.38 595.27 237.11C599.69 232.28 597.82 226.31 591.13 222.45L273.3 38.9599C264.7 33.9899 250.75 33.9899 242.15 38.9599L226.57 47.9499L575.5 249.41L591.08 240.41Z" fill="#E2E8F0"/>
<path d="M575.5 249.91C575.41 249.91 575.33 249.89 575.25 249.84L226.32 48.39C226.16 48.3 226.07 48.13 226.07 47.95C226.07 47.77 226.17 47.6 226.32 47.51L241.9 38.52C250.63 33.48 264.83 33.48 273.56 38.52L591.38 222.01C595.22 224.23 597.6 227.17 598.08 230.31C598.47 232.81 597.62 235.28 595.64 237.45C594.47 238.73 593.02 239.87 591.33 240.84L575.75 249.83C575.67 249.89 575.59 249.91 575.5 249.91ZM227.58 47.95L575.5 248.83L590.83 239.98C592.43 239.05 593.8 237.98 594.9 236.78C596.67 234.85 597.43 232.66 597.09 230.47C596.65 227.64 594.45 224.95 590.88 222.89L273.05 39.39C264.6 34.51 250.85 34.51 242.4 39.39L227.58 47.95Z" fill="black"/>
<path d="M262.92 55.19C266.974 55.19 270.26 53.2916 270.26 50.95C270.26 48.6083 266.974 46.71 262.92 46.71C258.866 46.71 255.58 48.6083 255.58 50.95C255.58 53.2916 258.866 55.19 262.92 55.19Z" fill="#F16F83"/>
<path d="M262.92 55.6799C260.95 55.6799 258.98 55.2499 257.48 54.3799C255.93 53.4899 255.08 52.2699 255.08 50.9499C255.08 49.6299 255.93 48.4099 257.48 47.5199C260.48 45.7899 265.37 45.7899 268.37 47.5199C269.92 48.4099 270.77 49.6299 270.77 50.9499C270.77 52.2699 269.92 53.4899 268.37 54.3799C266.86 55.2499 264.89 55.6799 262.92 55.6799ZM262.92 47.2099C261.13 47.2099 259.34 47.5999 257.98 48.3899C256.76 49.0999 256.08 50.0099 256.08 50.9499C256.08 51.8899 256.75 52.7999 257.98 53.5099C260.7 55.0799 265.14 55.0799 267.86 53.5099C269.08 52.7999 269.76 51.8899 269.76 50.9499C269.76 49.9999 269.09 49.0899 267.86 48.3899C266.5 47.5999 264.71 47.2099 262.92 47.2099Z" fill="black"/>
<path d="M278.5 64.18C282.554 64.18 285.84 62.2816 285.84 59.9399C285.84 57.5983 282.554 55.7 278.5 55.7C274.446 55.7 271.16 57.5983 271.16 59.9399C271.16 62.2816 274.446 64.18 278.5 64.18Z" fill="#FED668"/>
<path d="M278.5 64.6799C276.53 64.6799 274.56 64.2499 273.06 63.3799C271.51 62.4899 270.66 61.2699 270.66 59.9499C270.66 58.6299 271.51 57.4099 273.06 56.5199C276.06 54.7899 280.95 54.7899 283.95 56.5199C285.5 57.4099 286.35 58.6299 286.35 59.9499C286.35 61.2699 285.5 62.4899 283.95 63.3799C282.44 64.2399 280.47 64.6799 278.5 64.6799ZM278.5 56.1999C276.71 56.1999 274.92 56.5899 273.56 57.3799C272.34 58.0899 271.66 58.9999 271.66 59.9399C271.66 60.8899 272.33 61.7999 273.56 62.4999C276.28 64.0699 280.72 64.0699 283.44 62.4999C284.66 61.7899 285.34 60.8799 285.34 59.9399C285.34 58.9899 284.67 58.0799 283.44 57.3799C282.07 56.5999 280.28 56.1999 278.5 56.1999Z" fill="black"/>
<path d="M294.07 73.1802C298.124 73.1802 301.41 71.2819 301.41 68.9402C301.41 66.5985 298.124 64.7002 294.07 64.7002C290.016 64.7002 286.73 66.5985 286.73 68.9402C286.73 71.2819 290.016 73.1802 294.07 73.1802Z" fill="#97D99E"/>
<path d="M294.07 73.6701C292.1 73.6701 290.13 73.2401 288.63 72.3701C287.08 71.4801 286.23 70.2601 286.23 68.9401C286.23 67.6201 287.08 66.4001 288.63 65.5101C291.63 63.7701 296.52 63.7701 299.52 65.5101C301.07 66.4001 301.92 67.6201 301.92 68.9401C301.92 70.2601 301.07 71.4801 299.52 72.3701C298.02 73.2401 296.04 73.6701 294.07 73.6701ZM294.07 65.2001C292.28 65.2001 290.49 65.5901 289.13 66.3801C287.91 67.0901 287.23 68.0001 287.23 68.9401C287.23 69.8801 287.9 70.7901 289.13 71.5001C291.85 73.0701 296.29 73.0701 299.01 71.5001C300.23 70.7901 300.91 69.8801 300.91 68.9401C300.91 67.9901 300.24 67.0801 299.01 66.3801C297.65 65.5901 295.86 65.2001 294.07 65.2001Z" fill="black"/>
</g>
</g>
<defs>
<clipPath id="clip0">
<rect width="400" height="277" fill="white"/>
</clipPath>
<clipPath id="clip1">
<rect width="799.18" height="500.6" fill="white" transform="translate(-201)"/>
</clipPath>
</defs>
</svg>
